<svg id="svg" xmlns="http://www.w3.org/2000/svg" xmlns:xlink="http://www.w3.org/1999/xlink" width="400" height="400" viewBox="0, 0, 400,400"><g id="svgg"><path id="path0" d="M176.391 63.912 C 159.998 80.363,146.562 93.897,146.532 93.987 C 146.452 94.228,153.154 100.758,153.425 100.702 C 153.553 100.676,153.993 100.807,154.403 100.994 C 154.813 101.181,155.231 101.333,155.332 101.333 C 155.433 101.333,155.827 101.483,156.206 101.667 C 156.585 101.850,157.069 102.000,157.281 102.000 C 157.493 102.000,157.667 102.060,157.667 102.133 C 157.667 102.319,158.681 102.667,159.222 102.667 C 159.468 102.667,159.798 102.817,159.955 103.000 C 160.112 103.183,160.446 103.333,160.696 103.333 C 161.129 103.333,161.989 103.631,162.167 103.842 C 162.212 103.897,162.625 104.041,163.083 104.163 C 163.542 104.285,163.992 104.439,164.083 104.505 C 164.305 104.664,167.073 105.656,167.917 105.879 C 168.283 105.976,168.622 106.113,168.670 106.184 C 168.802 106.380,169.640 106.667,170.082 106.667 C 170.299 106.667,170.588 106.779,170.725 106.916 C 170.862 107.053,171.356 107.247,171.823 107.347 C 172.290 107.447,172.778 107.635,172.907 107.764 C 173.037 107.894,173.279 108.000,173.446 108.001 C 173.613 108.001,174.463 108.272,175.333 108.603 C 177.999 109.616,179.074 109.993,179.304 109.996 C 179.425 109.998,179.622 110.099,179.743 110.219 C 179.864 110.340,180.397 110.536,180.929 110.655 C 181.460 110.774,181.999 110.975,182.126 111.102 C 182.253 111.229,182.525 111.333,182.730 111.333 C 183.140 111.333,184.739 112.787,190.250 118.167 C 193.933 121.762,194.833 122.609,194.833 122.477 C 194.833 122.428,193.135 120.707,191.058 118.652 C 188.982 116.598,184.941 112.592,182.078 109.750 C 179.215 106.908,174.434 102.183,171.455 99.249 L 166.038 93.915 170.783 89.082 C 173.393 86.425,177.903 81.838,180.806 78.890 C 183.708 75.942,188.033 71.524,190.417 69.072 C 192.800 66.621,197.150 62.185,200.083 59.217 L 205.417 53.819 209.323 57.784 C 211.472 59.966,215.747 64.303,218.823 67.423 C 221.900 70.543,226.554 75.268,229.167 77.923 C 231.779 80.578,236.497 85.370,239.650 88.572 L 245.384 94.395 237.378 102.322 C 229.398 110.224,228.069 111.591,228.547 111.407 C 228.686 111.354,228.849 111.391,228.910 111.489 C 228.970 111.587,229.196 111.667,229.413 111.667 C 229.629 111.667,229.831 111.723,229.861 111.792 C 229.892 111.860,230.404 112.083,231.000 112.285 C 232.789 112.894,234.398 113.513,234.579 113.663 C 234.673 113.740,235.050 113.859,235.417 113.926 C 235.783 113.993,236.121 114.095,236.167 114.152 C 236.343 114.373,237.204 114.667,237.676 114.667 C 237.964 114.667,238.289 114.806,238.455 115.000 C 238.633 115.208,238.947 115.333,239.289 115.333 C 239.767 115.333,240.406 115.566,240.667 115.836 C 240.713 115.883,241.125 116.019,241.583 116.138 C 242.666 116.417,242.756 116.529,242.290 117.014 C 238.267 121.204,237.907 121.716,241.427 118.240 C 243.241 116.449,245.347 114.410,251.143 108.833 C 253.192 106.862,255.792 104.350,256.921 103.250 C 258.050 102.150,260.443 99.831,262.237 98.097 C 264.032 96.362,265.500 94.880,265.500 94.802 C 265.500 94.677,263.952 93.054,259.333 88.341 C 258.011 86.992,251.908 80.709,245.750 74.358 C 244.283 72.845,242.371 70.877,241.500 69.985 C 237.581 65.970,225.826 53.886,224.086 52.083 C 222.211 50.141,214.845 42.551,213.333 41.005 C 212.554 40.207,210.694 38.305,209.200 36.778 C 207.707 35.250,206.419 34.000,206.339 34.000 C 206.260 34.000,192.783 47.460,176.391 63.912 M154.163 101.747 C 154.566 102.157,154.929 102.460,154.969 102.420 C 155.050 102.339,153.699 101.000,153.535 101.000 C 153.478 101.000,153.760 101.336,154.163 101.747 M218.493 145.875 C 219.184 146.611,219.333 146.743,219.333 146.618 C 219.333 146.591,218.977 146.235,218.542 145.826 L 217.750 145.083 218.493 145.875 M225.099 152.417 C 225.249 152.646,225.438 152.833,225.518 152.833 C 225.599 152.833,225.501 152.646,225.302 152.417 C 225.103 152.188,224.914 152.000,224.883 152.000 C 224.851 152.000,224.949 152.188,225.099 152.417 M225.833 153.149 C 225.833 153.229,226.021 153.418,226.250 153.568 C 226.479 153.718,226.667 153.815,226.667 153.784 C 226.667 153.752,226.479 153.564,226.250 153.364 C 226.021 153.165,225.833 153.068,225.833 153.149 " stroke="none" fill="#faa548" fill-rule="evenodd"></path><path id="path1" d="M202.667 33.958 C 200.879 33.981,195.667 34.018,191.083 34.041 C 184.869 34.073,182.750 34.133,182.750 34.278 C 182.750 34.524,182.530 34.748,182.278 34.758 C 182.171 34.762,182.100 34.848,182.120 34.950 C 182.140 35.051,181.822 35.441,181.415 35.817 C 181.008 36.193,180.720 36.500,180.776 36.500 C 180.832 36.500,180.317 37.081,179.631 37.792 C 178.945 38.502,178.064 39.439,177.673 39.873 C 177.277 40.312,176.877 40.615,176.772 40.555 C 176.668 40.495,176.637 40.506,176.702 40.578 C 176.855 40.748,173.671 44.189,173.474 44.067 C 173.392 44.017,173.346 44.043,173.371 44.125 C 173.446 44.370,171.630 46.329,171.432 46.217 C 171.332 46.160,171.308 46.177,171.378 46.254 C 171.545 46.438,170.498 47.518,170.281 47.384 C 170.190 47.328,170.163 47.360,170.222 47.455 C 170.364 47.685,167.683 50.530,167.457 50.390 C 167.351 50.325,167.332 50.363,167.408 50.485 C 167.478 50.599,167.426 50.776,167.290 50.886 C 167.157 50.995,163.985 54.346,160.242 58.333 C 151.531 67.614,150.983 68.176,150.782 68.052 C 150.683 67.990,150.668 68.033,150.745 68.158 C 150.830 68.297,150.395 68.860,149.466 69.809 C 148.692 70.602,146.980 72.412,145.662 73.833 C 144.344 75.254,142.694 77.017,141.995 77.750 C 141.297 78.483,139.648 80.246,138.332 81.667 C 137.016 83.087,135.680 84.527,135.363 84.864 L 134.786 85.479 137.377 88.073 C 138.802 89.499,140.021 90.667,140.086 90.667 C 140.151 90.667,140.872 91.360,141.690 92.208 L 143.176 93.750 140.963 93.841 C 138.963 93.923,139.102 93.935,142.417 93.966 L 146.084 94.000 176.076 64.007 C 192.573 47.511,206.035 33.992,205.993 33.965 C 205.951 33.939,204.454 33.935,202.667 33.958 M172.289 144.883 C 170.936 146.185,169.829 147.325,169.831 147.418 C 169.832 147.510,172.192 149.943,175.076 152.826 L 180.318 158.066 180.701 157.749 C 181.580 157.020,185.333 153.241,185.333 153.085 C 185.333 152.914,174.987 142.493,174.832 142.508 C 174.787 142.513,173.643 143.581,172.289 144.883 M139.167 177.694 C 130.978 185.661,125.167 191.404,125.167 191.529 C 125.167 191.609,129.789 191.669,135.550 191.663 L 145.934 191.652 152.842 184.809 C 158.630 179.075,160.454 177.196,158.793 178.679 C 158.561 178.887,158.334 178.913,157.708 178.805 C 157.273 178.730,156.561 178.626,156.127 178.574 C 155.693 178.522,155.242 178.385,155.125 178.268 C 155.008 178.151,154.463 178.003,153.914 177.940 C 153.366 177.876,152.354 177.679,151.667 177.501 C 148.625 176.716,146.282 176.171,145.506 176.068 C 145.044 176.007,144.667 175.899,144.667 175.829 C 144.667 175.683,142.803 175.331,142.070 175.338 C 141.672 175.342,141.141 175.774,139.167 177.694 M141.667 207.484 C 141.667 207.617,142.798 208.734,154.250 219.917 C 166.178 231.564,166.992 232.378,166.887 232.548 C 166.825 232.648,166.865 232.667,166.984 232.593 C 167.115 232.512,168.351 233.612,170.467 235.692 C 172.271 237.466,175.000 240.148,176.533 241.653 C 178.065 243.158,179.273 244.463,179.217 244.554 C 179.158 244.648,179.201 244.665,179.317 244.594 C 179.542 244.455,185.543 250.296,185.405 250.519 C 185.360 250.592,189.750 250.657,195.162 250.663 C 200.573 250.669,205.000 250.611,205.000 250.533 C 205.000 250.456,198.644 244.066,190.875 236.334 C 169.551 215.110,166.277 211.882,166.491 212.301 C 166.600 212.513,166.790 212.725,166.915 212.772 C 167.638 213.050,167.271 213.292,166.447 213.081 C 165.972 212.960,165.246 212.784,164.833 212.690 C 163.107 212.299,161.679 211.952,160.556 211.652 C 159.899 211.477,159.056 211.333,158.681 211.333 C 158.306 211.333,158.000 211.270,158.000 211.193 C 158.000 211.047,156.780 210.748,155.505 210.582 C 155.095 210.528,154.719 210.418,154.668 210.336 C 154.618 210.255,153.867 210.074,152.999 209.934 C 152.131 209.794,151.395 209.602,151.363 209.507 C 151.332 209.411,151.075 209.333,150.794 209.333 C 150.513 209.333,149.375 209.118,148.266 208.854 C 147.157 208.591,145.912 208.297,145.500 208.202 C 145.087 208.106,144.337 207.917,143.833 207.781 C 142.617 207.454,141.667 207.324,141.667 207.484 " stroke="none" fill="#642c75" fill-rule="evenodd"></path><path id="path2" d="M183.109 33.958 C 183.039 34.072,191.229 34.070,201.833 33.955 C 204.079 33.931,200.802 33.893,194.552 33.872 C 188.301 33.851,183.152 33.890,183.109 33.958 M176.084 63.958 L 146.084 94.000 142.417 93.966 C 139.102 93.935,138.963 93.923,140.963 93.841 L 143.176 93.750 141.690 92.208 C 140.872 91.360,140.151 90.667,140.086 90.667 C 140.021 90.667,138.802 89.499,137.377 88.073 L 134.786 85.479 135.363 84.864 C 135.680 84.527,137.016 83.087,138.332 81.667 C 139.648 80.246,141.297 78.483,141.995 77.750 C 145.417 74.159,148.015 71.333,147.896 71.333 C 147.762 71.333,146.222 72.913,143.000 76.356 C 139.396 80.207,138.724 80.916,137.708 81.941 C 137.135 82.519,136.667 83.030,136.667 83.078 C 136.667 83.125,136.067 83.765,135.333 84.500 C 134.600 85.235,134.000 85.916,134.000 86.012 C 134.000 86.108,133.925 86.140,133.833 86.083 C 133.742 86.027,133.667 86.054,133.667 86.144 C 133.667 86.289,131.738 88.374,128.958 91.234 C 128.431 91.776,128.000 92.243,128.000 92.272 C 128.000 92.300,127.664 92.682,127.253 93.120 C 126.842 93.558,126.504 93.960,126.503 94.013 C 126.501 94.066,137.347 104.948,150.605 118.196 L 174.709 142.282 170.871 146.099 C 162.027 154.895,156.973 159.833,156.815 159.833 C 156.723 159.833,156.675 159.890,156.709 159.958 C 156.743 160.027,156.598 160.249,156.386 160.452 C 156.174 160.655,156.000 160.803,156.000 160.781 C 156.000 160.759,153.861 162.862,151.246 165.454 C 148.631 168.046,146.427 170.167,146.349 170.167 C 146.270 170.167,146.164 170.324,146.114 170.517 C 146.064 170.709,145.951 170.823,145.863 170.769 C 145.716 170.677,145.250 171.094,145.250 171.317 C 145.250 171.372,145.201 171.400,145.141 171.380 C 145.081 171.360,144.941 171.454,144.829 171.589 C 144.717 171.723,144.691 171.834,144.771 171.834 C 144.851 171.835,144.692 171.985,144.417 172.167 C 144.142 172.349,143.983 172.498,144.065 172.499 C 144.146 172.500,143.953 172.706,143.637 172.958 C 143.320 173.210,141.453 175.035,139.489 177.012 C 137.524 178.990,135.785 180.656,135.625 180.715 C 135.465 180.774,135.333 180.929,135.333 181.059 C 135.333 181.188,135.183 181.334,135.000 181.382 C 134.817 181.430,134.667 181.588,134.667 181.734 C 134.667 181.880,134.593 182.000,134.503 182.000 C 134.342 182.000,124.833 191.442,124.833 191.602 C 124.833 191.702,126.152 193.000,127.257 193.989 C 127.712 194.395,128.072 194.770,128.058 194.822 C 128.043 194.874,128.137 195.013,128.266 195.132 C 128.395 195.250,128.500 195.312,128.500 195.269 C 128.500 195.226,129.739 196.404,131.253 197.887 C 132.768 199.370,135.299 201.821,136.877 203.333 C 138.456 204.846,140.781 207.115,142.043 208.375 C 143.304 209.635,144.411 210.667,144.502 210.667 C 144.592 210.667,144.667 210.782,144.667 210.922 C 144.667 211.062,144.794 211.226,144.949 211.285 C 145.104 211.345,146.412 212.561,147.856 213.989 C 150.270 216.375,154.321 220.314,160.465 226.250 C 161.794 227.533,163.813 229.502,164.952 230.625 C 166.091 231.748,167.092 232.667,167.178 232.667 C 167.263 232.667,167.333 232.775,167.333 232.907 C 167.333 233.159,167.633 233.423,167.767 233.289 C 167.833 233.223,163.020 228.402,161.173 226.683 C 160.855 226.387,157.708 223.319,154.180 219.864 C 150.651 216.410,146.392 212.240,144.715 210.599 C 143.039 208.957,141.667 207.556,141.667 207.484 C 141.667 207.324,142.617 207.454,143.833 207.781 C 144.337 207.917,145.087 208.106,145.500 208.202 C 145.912 208.297,147.157 208.591,148.266 208.854 C 149.375 209.118,150.513 209.333,150.794 209.333 C 151.075 209.333,151.332 209.411,151.363 209.507 C 151.395 209.602,152.131 209.794,152.999 209.934 C 153.867 210.074,154.618 210.255,154.668 210.336 C 154.719 210.418,155.095 210.528,155.505 210.582 C 156.780 210.748,158.000 211.047,158.000 211.193 C 158.000 211.270,158.306 211.333,158.681 211.333 C 159.056 211.333,159.899 211.477,160.556 211.652 C 161.679 211.952,163.107 212.299,164.833 212.690 C 165.246 212.784,165.972 212.960,166.447 213.081 C 167.271 213.292,167.638 213.050,166.915 212.772 C 166.790 212.725,166.600 212.513,166.491 212.301 C 166.272 211.873,170.185 215.732,191.000 236.472 L 205.250 250.670 206.206 249.640 L 207.161 248.610 206.372 248.323 C 205.938 248.165,205.096 247.859,204.500 247.644 C 203.904 247.428,203.379 247.211,203.333 247.161 C 203.187 247.001,202.000 246.693,202.000 246.816 C 202.000 246.880,202.093 247.042,202.207 247.175 C 202.705 247.756,190.103 235.267,171.588 216.830 C 160.585 205.874,150.402 195.752,148.958 194.337 C 146.034 191.470,146.094 191.576,146.958 190.825 C 147.509 190.346,156.402 181.630,170.167 168.081 C 178.426 159.950,180.185 158.250,180.384 158.205 C 180.494 158.181,182.795 160.374,185.499 163.080 C 188.203 165.786,190.473 168.000,190.545 168.000 C 190.617 168.000,191.780 166.913,193.130 165.584 L 195.583 163.169 209.750 177.341 L 223.917 191.513 223.307 192.078 C 222.972 192.388,222.725 192.670,222.759 192.704 C 222.793 192.737,222.045 193.568,221.097 194.549 C 220.150 195.530,219.413 196.333,219.460 196.333 C 219.507 196.333,219.179 196.726,218.731 197.207 C 218.283 197.687,217.842 198.056,217.750 198.026 C 217.658 197.997,217.641 198.030,217.712 198.101 C 217.783 198.172,217.509 198.572,217.103 198.990 C 216.697 199.408,215.951 200.212,215.445 200.777 C 214.939 201.341,214.501 201.791,214.471 201.777 C 214.441 201.762,214.431 201.776,214.448 201.809 C 214.515 201.937,210.947 205.747,210.800 205.704 C 210.713 205.679,210.680 205.721,210.727 205.796 C 210.774 205.872,210.573 206.197,210.281 206.518 C 209.989 206.839,208.969 207.960,208.015 209.009 C 207.060 210.058,206.198 210.892,206.098 210.861 C 205.998 210.831,205.972 210.861,206.040 210.929 C 206.219 211.107,205.831 211.517,205.606 211.388 C 205.502 211.329,205.471 211.340,205.538 211.414 C 205.647 211.535,205.024 212.319,203.468 214.019 C 203.165 214.351,202.062 215.567,201.017 216.722 C 199.972 217.877,199.042 218.776,198.950 218.719 C 198.857 218.662,198.833 218.698,198.896 218.800 C 198.960 218.904,198.357 219.694,197.507 220.617 C 196.680 221.515,196.003 222.302,196.002 222.367 C 196.000 222.477,201.699 228.673,204.229 231.312 L 205.407 232.541 206.329 231.557 C 206.835 231.017,209.731 227.914,212.764 224.662 C 220.007 216.895,232.706 203.297,235.172 200.667 C 236.246 199.521,238.593 197.008,240.388 195.083 L 243.650 191.583 194.992 142.917 C 168.230 116.150,146.333 94.175,146.333 94.083 C 146.333 93.992,159.811 80.439,176.285 63.965 C 192.758 47.492,206.202 33.992,206.160 33.965 C 206.118 33.939,192.584 47.435,176.084 63.958 M179.688 37.475 C 179.172 38.011,178.308 38.930,177.769 39.517 C 177.229 40.103,176.404 40.998,175.935 41.505 C 174.928 42.595,177.671 39.848,179.564 37.872 C 180.287 37.117,180.821 36.500,180.752 36.500 C 180.683 36.500,180.204 36.939,179.688 37.475 M173.679 43.882 L 172.608 45.083 173.804 43.921 C 174.462 43.282,175.000 42.738,175.000 42.713 C 175.000 42.497,174.588 42.862,173.679 43.882 M171.859 45.795 C 171.645 46.045,171.120 46.625,170.693 47.083 C 170.034 47.791,170.076 47.766,170.971 46.917 C 171.550 46.367,172.096 45.785,172.185 45.625 C 172.410 45.215,172.313 45.266,171.859 45.795 M168.104 49.747 C 166.119 51.852,165.949 52.033,163.417 54.745 C 162.317 55.923,160.938 57.365,160.354 57.950 C 159.769 58.535,159.326 59.049,159.370 59.092 C 159.414 59.136,161.126 57.389,163.176 55.211 C 165.226 53.032,167.468 50.658,168.160 49.934 C 168.851 49.210,169.548 48.479,169.708 48.309 C 169.869 48.139,169.944 48.000,169.875 48.001 C 169.806 48.001,169.009 48.787,168.104 49.747 M156.900 61.626 C 155.699 62.886,154.274 64.402,153.733 64.995 C 152.295 66.574,150.758 68.195,149.276 69.698 C 148.557 70.428,148.000 71.056,148.039 71.094 C 148.126 71.182,149.819 69.428,156.091 62.750 C 157.554 61.192,158.854 59.785,158.980 59.625 C 159.533 58.916,158.933 59.494,156.900 61.626 M221.007 97.000 C 217.718 100.209,204.208 113.478,198.956 118.657 C 196.960 120.624,195.235 122.292,195.122 122.363 C 194.915 122.493,205.451 133.214,205.699 133.125 C 205.864 133.066,208.996 130.021,215.833 123.271 C 219.088 120.059,224.375 114.843,227.583 111.681 C 230.792 108.519,235.988 103.378,239.130 100.258 L 244.844 94.583 238.880 94.470 C 235.600 94.408,230.871 94.333,228.371 94.303 L 223.826 94.250 221.007 97.000 M180.124 147.707 C 182.989 150.571,185.333 152.991,185.333 153.085 C 185.333 153.241,181.580 157.020,180.701 157.749 L 180.318 158.066 175.076 152.826 C 172.192 149.943,169.832 147.510,169.831 147.418 C 169.828 147.261,174.652 142.526,174.832 142.508 C 174.878 142.504,177.259 144.843,180.124 147.707 M143.611 175.517 C 144.192 175.618,144.667 175.759,144.667 175.829 C 144.667 175.899,145.044 176.007,145.506 176.068 C 146.282 176.171,148.625 176.716,151.667 177.501 C 152.354 177.679,153.366 177.876,153.914 177.940 C 154.463 178.003,155.008 178.151,155.125 178.268 C 155.242 178.385,155.693 178.522,156.127 178.574 C 156.561 178.626,157.273 178.730,157.708 178.805 C 158.334 178.913,158.561 178.887,158.793 178.679 C 160.454 177.196,158.630 179.075,152.842 184.809 L 145.934 191.652 135.550 191.663 C 129.789 191.669,125.167 191.609,125.167 191.529 C 125.167 191.404,130.978 185.661,139.167 177.694 C 141.832 175.102,141.673 175.180,143.611 175.517 M168.000 233.413 C 168.000 233.577,170.144 235.702,176.996 242.333 C 179.412 244.671,182.316 247.483,183.450 248.583 C 184.583 249.683,185.602 250.608,185.714 250.638 C 185.860 250.677,185.864 250.654,185.727 250.554 C 185.508 250.394,175.297 240.456,170.958 236.179 C 169.331 234.575,168.000 233.330,168.000 233.413 " stroke="none" fill="#9c2b78" fill-rule="evenodd"></path><path id="path3" d="M223.571 93.595 C 223.923 93.947,223.915 93.979,223.292 94.659 L 222.750 95.250 223.333 94.741 L 223.917 94.231 231.083 94.349 C 235.025 94.414,239.747 94.474,241.576 94.483 L 244.903 94.500 244.160 95.292 L 243.417 96.083 244.299 95.250 L 245.181 94.417 242.132 94.308 C 240.455 94.248,235.868 94.145,231.939 94.079 C 228.010 94.014,224.885 93.905,224.995 93.837 C 225.114 93.763,224.891 93.637,224.440 93.523 C 223.426 93.268,223.258 93.282,223.571 93.595 M241.913 97.542 L 240.583 98.917 241.958 97.587 C 243.235 96.353,243.409 96.167,243.288 96.167 C 243.263 96.167,242.644 96.785,241.913 97.542 M129.333 97.052 C 129.333 97.081,129.577 97.325,129.875 97.594 L 130.417 98.083 129.927 97.542 C 129.471 97.037,129.333 96.923,129.333 97.052 M218.758 98.846 C 218.865 99.020,218.238 99.514,218.085 99.375 C 218.009 99.306,217.994 99.334,218.053 99.436 C 218.184 99.666,217.609 100.215,217.418 100.042 C 217.342 99.973,217.328 100.000,217.386 100.103 C 217.517 100.333,216.942 100.882,216.751 100.709 C 216.675 100.640,216.660 100.666,216.718 100.767 C 216.775 100.868,215.677 102.080,214.271 103.469 C 212.868 104.854,211.819 105.931,211.941 105.863 C 212.466 105.569,219.226 98.695,218.971 98.715 C 218.816 98.726,218.720 98.785,218.758 98.846 M133.000 100.750 C 134.051 101.804,134.949 102.667,134.995 102.667 C 135.040 102.667,134.218 101.804,133.167 100.750 C 132.115 99.696,131.218 98.833,131.172 98.833 C 131.126 98.833,131.949 99.696,133.000 100.750 M137.029 104.792 C 137.242 105.044,137.792 105.584,138.250 105.993 C 138.831 106.511,138.732 106.373,137.921 105.535 C 136.728 104.301,136.343 103.981,137.029 104.792 M208.759 108.824 C 207.391 110.194,206.192 111.270,206.094 111.214 C 205.997 111.159,205.975 111.177,206.046 111.256 C 206.214 111.440,204.162 113.517,203.945 113.383 C 203.855 113.327,203.828 113.357,203.884 113.448 C 204.018 113.664,202.938 114.712,202.754 114.545 C 202.677 114.474,202.665 114.507,202.728 114.617 C 202.793 114.730,202.705 114.890,202.524 114.987 C 202.349 115.081,202.155 115.291,202.093 115.454 C 201.995 115.709,202.025 115.704,202.303 115.417 C 202.482 115.233,204.586 113.139,206.980 110.762 C 210.958 106.814,211.425 106.333,211.290 106.333 C 211.266 106.333,210.127 107.454,208.759 108.824 M156.833 124.583 C 166.596 134.346,174.620 142.333,174.666 142.333 C 174.712 142.333,166.762 134.346,157.000 124.583 C 147.238 114.821,139.213 106.833,139.167 106.833 C 139.121 106.833,147.071 114.821,156.833 124.583 M226.328 112.917 C 223.620 115.621,221.446 117.833,221.495 117.833 C 221.545 117.833,223.797 115.621,226.500 112.917 C 229.203 110.212,231.378 108.000,231.332 108.001 C 231.287 108.001,229.035 110.214,226.328 112.917 M197.962 119.459 C 196.521 120.902,195.286 122.158,195.218 122.250 C 195.151 122.342,196.349 121.180,197.881 119.669 C 200.457 117.127,200.742 116.833,200.625 116.834 C 200.602 116.834,199.404 118.015,197.962 119.459 M220.554 118.542 C 220.368 118.748,220.162 119.029,220.095 119.167 C 220.029 119.304,220.135 119.234,220.330 119.011 C 220.526 118.788,220.813 118.510,220.968 118.392 C 221.123 118.274,221.169 118.175,221.071 118.172 C 220.972 118.169,220.740 118.335,220.554 118.542 M212.717 126.309 L 205.683 133.269 210.550 138.115 C 214.649 142.198,216.136 143.496,215.949 142.829 C 215.907 142.679,220.821 137.917,221.018 137.917 C 221.100 137.917,221.168 137.842,221.169 137.750 C 221.171 137.658,222.042 136.710,223.107 135.643 C 225.191 133.554,225.210 133.506,224.133 133.166 C 223.739 133.042,223.342 132.890,223.250 132.829 C 223.158 132.768,222.558 132.539,221.917 132.320 C 221.275 132.102,220.713 131.874,220.667 131.815 C 220.621 131.755,220.040 131.575,219.375 131.414 C 218.710 131.253,218.167 131.069,218.167 131.004 C 218.167 130.940,217.679 130.747,217.083 130.577 C 216.487 130.407,216.000 130.215,216.000 130.152 C 216.000 130.089,215.736 129.988,215.414 129.927 C 215.092 129.867,214.293 129.599,213.638 129.333 C 212.983 129.066,212.235 128.802,211.975 128.745 C 211.716 128.688,211.462 128.573,211.410 128.489 C 211.358 128.405,211.114 128.463,210.866 128.617 C 210.619 128.771,212.517 126.778,215.083 124.189 C 220.470 118.755,219.907 119.331,219.819 119.341 C 219.781 119.346,216.585 122.481,212.717 126.309 M197.083 124.833 C 198.364 126.117,199.450 127.167,199.496 127.167 C 199.541 127.167,198.531 126.117,197.250 124.833 C 195.969 123.550,194.884 122.500,194.838 122.500 C 194.792 122.500,195.802 123.550,197.083 124.833 M201.583 129.333 C 201.941 129.700,202.272 130.000,202.318 130.000 C 202.363 130.000,202.108 129.700,201.750 129.333 C 201.392 128.967,201.062 128.667,201.016 128.667 C 200.970 128.667,201.225 128.967,201.583 129.333 M189.250 137.167 C 189.608 137.533,189.938 137.833,189.984 137.833 C 190.030 137.833,189.775 137.533,189.417 137.167 C 189.059 136.800,188.728 136.500,188.682 136.500 C 188.637 136.500,188.892 136.800,189.250 137.167 M190.826 138.708 C 191.517 139.444,191.667 139.577,191.667 139.451 C 191.667 139.425,191.310 139.068,190.875 138.660 L 190.083 137.917 190.826 138.708 M217.712 165.594 L 243.673 191.591 242.917 192.333 C 242.501 192.742,242.198 193.175,242.245 193.297 C 242.291 193.418,242.262 193.476,242.180 193.425 C 242.097 193.374,240.507 194.964,238.645 196.958 C 236.784 198.952,234.800 201.071,234.236 201.667 C 233.236 202.722,223.891 212.730,212.764 224.662 C 209.731 227.914,206.835 231.017,206.329 231.557 L 205.407 232.541 204.228 231.312 C 201.437 228.403,195.833 222.286,195.833 222.149 C 195.833 222.067,195.761 222.000,195.673 222.000 C 195.456 222.000,193.906 220.322,193.958 220.143 C 193.981 220.064,193.941 220.019,193.868 220.042 C 193.796 220.065,192.682 218.958,191.394 217.583 C 187.973 213.931,187.845 213.783,187.953 213.608 C 188.007 213.520,187.975 213.496,187.881 213.554 C 187.718 213.654,187.203 213.218,187.179 212.958 C 187.172 212.890,187.110 212.827,187.042 212.819 C 186.798 212.792,186.505 212.460,186.595 212.314 C 186.645 212.233,186.609 212.167,186.514 212.167 C 186.280 212.167,185.238 210.998,185.296 210.800 C 185.321 210.713,185.274 210.684,185.192 210.735 C 185.025 210.838,182.559 208.178,182.625 207.967 C 182.648 207.893,182.597 207.852,182.512 207.875 C 182.280 207.937,180.998 206.472,181.116 206.280 C 181.172 206.189,181.144 206.161,181.054 206.217 C 180.964 206.272,180.486 205.909,179.992 205.409 C 179.499 204.909,179.145 204.500,179.207 204.500 C 179.269 204.500,178.948 204.153,178.496 203.730 C 178.043 203.306,177.714 202.892,177.765 202.809 C 177.816 202.726,177.790 202.679,177.707 202.704 C 177.518 202.762,175.814 200.919,175.921 200.773 C 175.965 200.715,175.951 200.704,175.890 200.749 C 175.715 200.880,175.326 200.480,175.444 200.289 C 175.503 200.193,175.473 200.163,175.378 200.223 C 175.192 200.337,173.885 198.854,173.962 198.616 C 173.988 198.539,173.937 198.519,173.850 198.573 C 173.671 198.684,171.561 196.387,171.625 196.152 C 171.648 196.068,171.573 196.019,171.458 196.042 C 171.344 196.065,171.269 195.990,171.292 195.875 C 171.315 195.760,171.240 195.685,171.125 195.708 C 171.010 195.731,170.937 195.651,170.962 195.529 C 170.988 195.408,170.937 195.353,170.849 195.407 C 170.668 195.519,169.226 193.870,169.296 193.631 C 169.321 193.545,169.275 193.517,169.193 193.567 C 168.992 193.691,168.467 193.092,168.625 192.918 C 168.694 192.842,168.665 192.829,168.560 192.888 C 168.453 192.949,168.098 192.664,167.744 192.232 L 167.117 191.467 178.809 179.774 L 190.501 168.082 185.520 163.104 C 182.781 160.366,180.461 158.154,180.363 158.188 C 180.183 158.251,178.004 160.365,170.167 168.081 C 156.402 181.630,147.509 190.346,146.958 190.825 C 146.094 191.576,146.034 191.470,148.958 194.337 C 150.402 195.752,160.585 205.874,171.588 216.830 C 190.103 235.267,202.705 247.756,202.207 247.175 C 202.093 247.042,202.000 246.880,202.000 246.816 C 202.000 246.693,203.187 247.001,203.333 247.161 C 203.379 247.211,203.904 247.428,204.500 247.644 C 205.096 247.859,205.937 248.164,206.368 248.321 L 207.153 248.607 206.641 249.179 C 206.359 249.493,205.936 249.956,205.700 250.208 C 205.464 250.460,205.309 250.667,205.355 250.667 C 205.401 250.667,208.766 247.333,212.833 243.259 C 216.901 239.185,220.301 235.897,220.390 235.952 C 220.479 236.007,220.504 235.975,220.446 235.881 C 220.313 235.665,220.897 235.123,221.082 235.291 C 221.158 235.360,221.173 235.334,221.115 235.233 C 221.018 235.062,221.686 234.276,221.846 234.373 C 221.885 234.397,221.895 234.383,221.869 234.341 C 221.771 234.187,232.235 223.856,232.390 223.952 C 232.479 224.007,232.504 223.975,232.446 223.881 C 232.313 223.665,232.897 223.123,233.082 223.291 C 233.158 223.360,233.173 223.334,233.115 223.233 C 232.987 223.007,233.724 222.280,233.901 222.457 C 233.971 222.526,234.003 222.501,233.972 222.401 C 233.942 222.300,239.129 216.941,245.500 210.493 C 251.871 204.044,257.244 198.600,257.440 198.395 L 257.796 198.022 256.690 197.575 C 256.081 197.329,255.171 196.960,254.667 196.755 C 254.162 196.550,253.356 196.282,252.875 196.160 C 252.394 196.037,252.000 195.876,252.000 195.802 C 252.000 195.727,251.854 195.667,251.677 195.667 C 251.499 195.667,251.307 195.592,251.250 195.500 C 251.193 195.408,250.932 195.333,250.669 195.333 C 250.406 195.333,250.087 195.230,249.961 195.104 C 249.834 194.977,249.473 194.821,249.157 194.757 C 248.459 194.614,247.447 194.284,247.333 194.163 C 247.287 194.114,246.612 193.860,245.833 193.598 C 245.054 193.336,244.251 193.020,244.048 192.895 C 243.845 192.769,243.517 192.667,243.319 192.667 C 242.967 192.667,242.968 192.656,243.397 192.094 L 243.834 191.522 217.958 165.692 C 203.727 151.485,192.008 139.802,191.917 139.729 C 191.825 139.657,203.433 151.296,217.712 165.594 M209.583 177.333 C 217.375 185.125,223.787 191.500,223.833 191.500 C 223.878 191.500,217.541 185.125,209.750 177.333 C 201.959 169.542,195.547 163.167,195.501 163.167 C 195.455 163.167,201.792 169.542,209.583 177.333 M207.740 209.208 L 207.250 209.750 207.792 209.260 C 208.297 208.804,208.410 208.667,208.281 208.667 C 208.252 208.667,208.009 208.910,207.740 209.208 M201.073 216.542 L 200.583 217.083 201.125 216.594 C 201.630 216.138,201.743 216.000,201.615 216.000 C 201.586 216.000,201.342 216.244,201.073 216.542 M198.048 219.838 C 197.662 220.202,197.403 220.500,197.473 220.500 C 197.542 220.500,197.892 220.200,198.250 219.833 C 199.088 218.976,198.958 218.978,198.048 219.838 M196.430 221.630 L 196.110 222.083 196.555 221.679 C 197.023 221.255,197.080 221.163,196.875 221.172 C 196.806 221.175,196.606 221.381,196.430 221.630 M132.139 294.462 C 131.742 294.578,131.215 294.709,130.970 294.754 C 130.311 294.872,128.463 296.020,128.373 296.367 C 128.330 296.532,128.228 296.667,128.147 296.667 C 128.066 296.667,128.000 296.774,128.000 296.905 C 128.000 297.036,127.906 297.244,127.792 297.367 C 127.270 297.929,127.190 301.293,127.680 302.135 C 127.856 302.438,128.000 302.758,128.000 302.846 C 128.000 303.055,129.523 304.546,129.788 304.597 C 129.901 304.618,130.122 304.764,130.278 304.921 C 130.435 305.078,130.774 305.280,131.032 305.369 C 131.289 305.459,131.500 305.592,131.500 305.665 C 131.500 305.738,131.706 305.846,131.958 305.905 C 132.746 306.089,135.178 307.376,135.351 307.700 C 135.442 307.870,135.579 307.971,135.656 307.923 C 135.733 307.876,135.888 307.949,136.002 308.085 C 136.115 308.222,136.161 308.333,136.104 308.333 C 136.047 308.333,136.146 308.479,136.324 308.657 C 137.376 309.709,136.780 311.831,135.118 312.948 C 134.075 313.648,131.126 313.701,129.870 313.041 C 129.477 312.835,129.054 312.667,128.929 312.667 C 128.804 312.667,128.665 312.569,128.619 312.449 C 128.490 312.113,127.200 311.734,126.969 311.964 C 126.554 312.379,126.685 314.048,127.168 314.500 C 129.002 316.215,134.164 316.550,136.750 315.123 C 136.933 315.021,137.290 314.834,137.543 314.706 C 137.796 314.578,137.966 314.413,137.920 314.339 C 137.823 314.182,138.174 313.855,138.417 313.877 C 138.508 313.886,138.610 313.754,138.643 313.583 C 138.676 313.413,138.805 313.171,138.930 313.046 C 139.055 312.921,139.237 312.525,139.333 312.166 C 139.430 311.808,139.565 311.480,139.633 311.438 C 140.140 311.124,139.569 307.426,138.912 306.769 C 138.777 306.634,138.667 306.475,138.667 306.416 C 138.667 306.356,138.442 306.083,138.167 305.808 C 137.892 305.533,137.667 305.364,137.667 305.433 C 137.667 305.502,137.495 305.397,137.284 305.199 C 137.074 305.002,136.662 304.756,136.368 304.654 C 136.074 304.551,135.833 304.400,135.833 304.317 C 135.833 304.234,135.744 304.167,135.635 304.167 C 135.317 304.167,132.033 302.515,131.969 302.323 C 131.937 302.227,131.789 302.131,131.640 302.109 C 131.386 302.071,130.354 301.000,130.572 301.000 C 130.628 301.000,130.551 300.811,130.399 300.580 C 130.078 300.090,130.157 298.712,130.519 298.488 C 130.641 298.413,130.694 298.305,130.638 298.249 C 130.489 298.100,131.378 297.248,131.625 297.302 C 131.740 297.327,131.833 297.282,131.833 297.200 C 131.833 296.707,133.745 296.555,135.011 296.947 C 135.999 297.254,136.098 297.282,136.308 297.313 C 136.385 297.324,136.620 297.482,136.829 297.663 C 137.039 297.845,137.270 297.956,137.343 297.910 C 137.417 297.865,137.524 297.904,137.582 297.997 C 137.746 298.263,138.453 298.195,138.566 297.903 C 139.100 296.509,138.122 295.094,136.393 294.761 C 136.222 294.729,135.747 294.612,135.339 294.501 C 134.314 294.226,133.000 294.209,132.139 294.462 M177.833 294.344 C 177.054 294.401,176.266 294.496,176.081 294.556 C 175.897 294.615,175.522 294.695,175.248 294.733 C 174.759 294.800,172.997 295.491,172.833 295.679 C 172.787 295.732,172.495 295.919,172.183 296.096 C 171.551 296.454,170.684 297.285,170.023 298.167 C 169.782 298.487,169.510 298.805,169.418 298.872 C 169.325 298.940,169.310 298.996,169.384 298.997 C 169.550 299.001,168.975 300.000,168.808 300.000 C 168.742 300.000,168.692 300.131,168.698 300.292 C 168.703 300.452,168.581 300.921,168.425 301.333 C 167.794 303.008,167.725 307.678,168.308 309.191 C 168.402 309.434,168.434 309.678,168.378 309.733 C 168.323 309.788,168.365 309.833,168.472 309.833 C 168.579 309.833,168.667 309.965,168.667 310.125 C 168.668 310.285,168.818 310.662,169.001 310.962 C 169.184 311.262,169.333 311.591,169.333 311.692 C 169.333 311.938,172.071 314.667,172.318 314.667 C 172.424 314.667,172.678 314.774,172.881 314.904 C 173.461 315.277,175.342 315.860,176.167 315.922 C 178.368 316.086,180.870 315.974,181.583 315.678 C 181.858 315.564,182.344 315.427,182.663 315.374 C 183.301 315.268,184.658 314.474,184.880 314.077 C 185.355 313.228,184.946 304.178,184.432 304.161 C 183.272 304.123,176.915 304.196,176.863 304.248 C 176.675 304.436,176.812 306.384,177.022 306.517 C 177.147 306.597,178.319 306.663,179.625 306.664 L 182.000 306.667 182.000 309.760 C 182.000 311.987,181.948 312.821,181.815 312.738 C 181.713 312.675,181.582 312.695,181.523 312.782 C 180.945 313.640,176.089 313.732,175.257 312.900 C 175.117 312.760,174.936 312.686,174.856 312.736 C 174.775 312.786,174.512 312.645,174.271 312.422 C 174.030 312.198,173.833 312.060,173.833 312.113 C 173.833 312.166,173.537 311.922,173.174 311.570 C 172.811 311.218,172.541 310.904,172.573 310.871 C 172.605 310.839,172.457 310.624,172.243 310.393 C 172.029 310.162,171.895 309.867,171.945 309.737 C 171.995 309.607,171.962 309.500,171.871 309.500 C 171.704 309.500,171.293 308.647,171.234 308.177 C 171.216 308.034,171.119 307.513,171.017 307.019 C 170.785 305.887,170.788 304.305,171.023 303.333 C 171.123 302.921,171.227 302.418,171.253 302.216 C 171.317 301.740,171.987 300.344,172.358 299.917 C 172.516 299.733,172.650 299.526,172.654 299.455 C 172.658 299.385,172.944 299.085,173.289 298.789 C 173.634 298.493,173.970 298.175,174.036 298.084 C 174.101 297.992,174.213 297.915,174.286 297.912 C 174.358 297.910,174.614 297.776,174.854 297.615 C 175.095 297.454,175.462 297.289,175.670 297.249 C 175.879 297.209,176.309 297.091,176.626 296.986 C 177.281 296.770,180.111 296.842,180.500 297.084 C 180.637 297.170,180.900 297.249,181.083 297.260 C 181.450 297.282,183.365 298.145,183.503 298.351 C 183.551 298.421,183.776 298.545,184.003 298.626 C 185.294 299.085,185.557 297.242,184.375 296.014 C 183.985 295.609,183.623 295.321,183.570 295.374 C 183.518 295.427,183.124 295.315,182.696 295.125 C 182.267 294.935,181.658 294.751,181.341 294.715 C 181.025 294.680,180.680 294.580,180.576 294.494 C 180.471 294.407,180.340 294.382,180.285 294.437 C 180.229 294.493,179.974 294.471,179.717 294.390 C 179.460 294.308,178.612 294.287,177.833 294.344 M219.000 294.518 C 218.679 294.600,218.229 294.698,218.000 294.735 C 217.323 294.844,217.088 294.911,217.000 295.019 C 216.954 295.076,216.584 295.291,216.177 295.497 C 215.770 295.703,215.346 295.957,215.233 296.061 C 215.121 296.165,214.797 296.427,214.514 296.644 C 214.231 296.860,214.000 297.142,214.000 297.269 C 214.000 297.396,213.887 297.500,213.750 297.500 C 213.529 297.500,213.489 297.568,213.504 297.920 C 213.505 297.968,213.412 298.120,213.295 298.259 C 213.179 298.398,213.008 298.603,212.917 298.714 C 212.755 298.911,212.539 299.421,212.141 300.542 C 211.860 301.337,211.786 301.564,211.750 301.750 C 211.732 301.842,211.700 301.954,211.678 302.000 C 211.391 302.609,211.360 307.074,211.634 308.333 C 211.764 308.929,211.878 309.548,211.887 309.708 C 211.897 309.869,211.961 310.000,212.030 310.000 C 212.100 310.000,212.114 310.110,212.063 310.244 C 212.011 310.378,212.111 310.697,212.284 310.952 C 212.458 311.208,212.694 311.604,212.808 311.833 C 213.399 313.012,213.608 313.336,213.711 313.233 C 213.773 313.171,213.901 313.323,213.995 313.570 C 214.089 313.818,214.238 313.976,214.326 313.921 C 214.414 313.867,214.611 314.015,214.765 314.250 C 214.919 314.485,215.080 314.642,215.124 314.599 C 215.199 314.523,215.377 314.644,215.930 315.145 C 216.069 315.270,216.223 315.332,216.273 315.282 C 216.323 315.232,216.713 315.348,217.140 315.539 C 218.255 316.037,222.001 316.115,223.241 315.666 C 223.704 315.498,224.327 315.311,224.625 315.250 C 224.923 315.190,225.167 315.085,225.167 315.017 C 225.167 314.950,225.466 314.726,225.833 314.520 C 226.585 314.098,226.708 313.785,226.635 312.491 C 226.576 311.455,226.198 311.218,225.556 311.817 C 225.361 311.998,225.159 312.103,225.106 312.051 C 225.054 311.998,224.832 312.127,224.614 312.337 C 224.395 312.547,224.149 312.715,224.067 312.711 C 223.984 312.706,223.625 312.851,223.268 313.033 C 222.157 313.600,218.000 313.432,218.000 312.820 C 218.000 312.736,217.876 312.667,217.725 312.667 C 217.574 312.667,217.195 312.404,216.884 312.083 C 216.572 311.762,216.246 311.500,216.159 311.500 C 216.012 311.500,215.933 311.259,215.980 310.958 C 215.991 310.890,215.928 310.833,215.839 310.833 C 215.657 310.833,215.299 310.226,215.255 309.840 C 215.238 309.699,215.097 309.299,214.941 308.951 C 214.784 308.603,214.697 308.252,214.747 308.171 C 214.798 308.090,214.773 307.983,214.693 307.933 C 214.613 307.884,214.548 306.714,214.548 305.333 C 214.548 303.953,214.613 302.783,214.693 302.734 C 214.773 302.684,214.801 302.582,214.754 302.506 C 214.707 302.431,214.787 302.042,214.932 301.643 C 215.077 301.243,215.211 300.829,215.230 300.722 C 215.250 300.616,215.405 300.343,215.575 300.116 C 215.745 299.890,215.870 299.656,215.852 299.595 C 215.834 299.535,216.278 299.046,216.838 298.509 C 218.301 297.104,220.024 296.597,221.927 297.013 C 222.471 297.132,222.954 297.235,223.000 297.242 C 223.317 297.288,224.167 297.734,224.167 297.854 C 224.167 297.934,224.293 298.000,224.448 298.000 C 224.602 298.000,224.890 298.152,225.088 298.337 C 226.164 299.349,226.617 299.091,226.631 297.457 L 226.640 296.331 225.945 295.869 C 225.002 295.242,224.003 294.783,223.500 294.745 C 223.271 294.728,222.746 294.630,222.333 294.527 C 221.453 294.309,219.828 294.304,219.000 294.518 M152.208 294.708 C 151.863 294.819,151.667 294.990,151.667 295.181 C 151.667 295.346,151.590 295.528,151.496 295.586 C 151.401 295.644,151.335 295.780,151.349 295.888 C 151.401 296.314,151.324 296.653,151.125 296.867 C 150.928 297.079,150.874 297.219,150.750 297.842 C 150.722 297.985,150.573 298.397,150.419 298.759 C 150.265 299.121,150.114 299.539,150.083 299.688 C 150.052 299.837,149.882 300.324,149.706 300.771 C 149.395 301.556,149.210 302.062,148.812 303.208 C 148.709 303.506,148.484 304.071,148.312 304.463 C 148.141 304.855,148.000 305.305,147.999 305.463 C 147.999 305.621,147.849 305.996,147.666 306.296 C 147.483 306.596,147.333 306.993,147.333 307.179 C 147.333 307.365,147.206 307.757,147.051 308.050 C 146.896 308.343,146.758 308.733,146.745 308.917 C 146.731 309.100,146.599 309.484,146.451 309.769 C 146.303 310.055,146.148 310.467,146.106 310.686 C 146.065 310.904,145.877 311.440,145.688 311.875 C 145.499 312.310,145.376 312.667,145.413 312.667 C 145.451 312.667,145.299 313.079,145.076 313.583 C 144.853 314.087,144.706 314.500,144.748 314.500 C 144.790 314.500,144.752 314.692,144.663 314.928 C 144.327 315.809,145.090 316.183,146.677 315.915 C 147.271 315.815,147.755 315.001,147.954 313.768 C 147.982 313.595,148.167 313.164,148.366 312.812 C 148.564 312.459,148.680 312.124,148.623 312.067 C 148.566 312.011,148.690 311.579,148.899 311.107 C 149.107 310.636,149.331 309.919,149.395 309.515 C 149.460 309.111,149.614 308.586,149.739 308.349 C 149.864 308.111,150.061 307.598,150.176 307.208 C 150.292 306.819,150.443 306.500,150.512 306.500 C 150.581 306.500,150.617 306.369,150.593 306.208 C 150.569 306.048,150.714 305.504,150.917 305.000 C 151.362 303.891,151.835 302.530,151.923 302.107 C 151.959 301.936,152.141 301.481,152.327 301.096 C 152.514 300.710,152.667 300.278,152.667 300.134 C 152.667 299.991,152.787 299.586,152.934 299.233 C 153.082 298.881,153.236 298.404,153.278 298.175 C 153.320 297.945,153.382 297.729,153.417 297.694 C 153.503 297.608,154.000 298.815,154.000 299.110 C 154.000 299.240,154.148 299.636,154.328 299.989 C 154.508 300.343,154.699 300.877,154.752 301.177 C 154.805 301.477,154.891 301.792,154.944 301.878 C 155.055 302.057,155.989 304.626,156.079 305.000 C 156.112 305.137,156.255 305.522,156.397 305.854 C 156.538 306.186,156.606 306.505,156.549 306.562 C 156.491 306.620,156.525 306.667,156.624 306.667 C 156.723 306.667,156.785 306.798,156.761 306.958 C 156.738 307.118,156.844 307.474,156.998 307.749 C 157.152 308.025,157.329 308.620,157.390 309.071 C 157.451 309.523,157.616 310.019,157.756 310.173 C 157.896 310.328,158.041 310.611,158.078 310.803 C 158.115 310.995,158.293 311.487,158.474 311.897 C 158.655 312.306,158.761 312.683,158.710 312.734 C 158.659 312.785,158.775 313.147,158.968 313.539 C 159.162 313.930,159.359 314.447,159.408 314.687 C 159.624 315.759,161.255 316.410,162.310 315.846 C 162.643 315.668,162.805 314.167,162.492 314.167 C 162.389 314.167,161.964 313.081,161.884 312.616 C 161.856 312.451,161.724 312.106,161.592 311.851 C 161.460 311.595,161.325 311.205,161.292 310.984 C 161.259 310.764,161.064 310.262,160.860 309.869 C 160.655 309.477,160.529 309.087,160.581 309.004 C 160.632 308.921,160.523 308.605,160.338 308.302 C 160.153 307.998,160.001 307.600,160.001 307.417 C 160.001 307.233,159.859 306.783,159.686 306.417 C 159.512 306.050,159.287 305.506,159.185 305.208 C 158.753 303.943,158.605 303.543,158.306 302.833 C 158.003 302.114,157.823 301.486,157.792 301.042 C 157.784 300.927,157.723 300.833,157.657 300.833 C 157.530 300.833,157.175 299.743,157.129 299.208 C 157.119 299.094,157.057 299.000,156.990 299.000 C 156.895 299.000,156.612 298.210,156.648 298.044 C 156.653 298.022,156.502 297.647,156.313 297.210 C 156.125 296.774,155.941 296.304,155.905 296.167 C 155.563 294.854,155.448 294.705,154.692 294.601 C 153.690 294.464,152.857 294.500,152.208 294.708 M234.333 294.640 L 233.917 294.765 233.872 305.007 C 233.839 312.374,233.880 315.350,234.015 315.606 C 234.246 316.045,236.239 316.084,236.510 315.656 C 236.721 315.322,236.715 294.883,236.504 294.752 C 236.230 294.583,234.775 294.507,234.333 294.640 M263.333 294.619 C 262.727 294.843,262.660 295.022,263.002 295.503 C 263.184 295.759,263.333 296.091,263.333 296.241 C 263.333 296.391,263.483 296.675,263.667 296.872 C 263.850 297.069,264.000 297.403,264.000 297.615 C 264.000 297.827,264.059 298.000,264.131 298.000 C 264.314 298.000,264.846 298.932,264.729 299.049 C 264.676 299.102,264.791 299.314,264.983 299.520 C 265.332 299.895,265.397 300.063,265.346 300.458 C 265.331 300.573,265.381 300.667,265.457 300.667 C 265.645 300.667,266.182 301.596,266.062 301.716 C 266.010 301.768,266.124 301.980,266.317 302.187 C 266.665 302.562,266.730 302.730,266.679 303.125 C 266.664 303.240,266.714 303.333,266.790 303.333 C 266.978 303.333,267.515 304.263,267.396 304.382 C 267.343 304.435,267.457 304.647,267.650 304.854 C 267.981 305.209,268.068 305.412,268.018 305.713 C 268.006 305.785,268.147 306.005,268.332 306.203 C 268.666 306.562,268.730 306.732,268.679 307.125 C 268.664 307.240,268.730 307.333,268.826 307.333 C 268.942 307.333,269.000 308.656,269.000 311.301 C 269.000 316.060,269.252 316.547,271.356 315.854 L 271.917 315.669 271.866 311.798 C 271.811 307.560,271.824 307.418,272.344 306.861 C 272.540 306.650,272.657 306.435,272.604 306.382 C 272.485 306.263,273.022 305.333,273.210 305.333 C 273.286 305.333,273.336 305.240,273.321 305.125 C 273.270 304.730,273.335 304.562,273.683 304.187 C 273.876 303.980,273.990 303.768,273.938 303.716 C 273.818 303.596,274.355 302.667,274.543 302.667 C 274.619 302.667,274.669 302.573,274.654 302.458 C 274.603 302.063,274.668 301.895,275.017 301.520 C 275.209 301.314,275.324 301.102,275.271 301.049 C 275.152 300.930,275.688 300.000,275.877 300.000 C 275.952 300.000,276.002 299.906,275.988 299.792 C 275.936 299.396,276.001 299.228,276.350 298.854 C 276.543 298.647,276.657 298.435,276.604 298.382 C 276.488 298.266,277.019 297.333,277.203 297.333 C 277.275 297.333,277.333 297.160,277.333 296.948 C 277.333 296.736,277.468 296.417,277.633 296.240 C 277.800 296.059,277.949 295.611,277.972 295.224 L 278.012 294.531 276.644 294.560 C 275.718 294.579,275.254 294.656,275.206 294.797 C 275.168 294.912,275.026 295.117,274.891 295.252 C 274.756 295.387,274.684 295.560,274.732 295.638 C 274.780 295.715,274.653 296.034,274.451 296.347 C 274.249 296.660,274.059 297.029,274.030 297.167 C 274.001 297.304,273.851 297.604,273.697 297.833 C 273.543 298.063,273.411 298.325,273.403 298.417 C 273.377 298.738,272.945 299.500,272.789 299.500 C 272.702 299.500,272.671 299.604,272.719 299.730 C 272.768 299.857,272.626 300.228,272.404 300.555 C 272.182 300.882,272.000 301.260,272.000 301.396 C 272.000 301.532,271.882 301.761,271.738 301.905 C 271.594 302.049,271.518 302.167,271.569 302.167 C 271.621 302.167,271.469 302.598,271.232 303.125 C 270.830 304.023,270.719 304.343,270.673 304.750 C 270.655 304.914,269.968 303.575,269.904 303.250 C 269.886 303.158,269.583 302.483,269.232 301.750 C 268.880 301.017,268.609 300.358,268.631 300.287 C 268.652 300.215,268.519 299.995,268.335 299.797 C 268.151 299.599,268.000 299.336,268.000 299.213 C 268.000 299.090,267.704 298.422,267.343 297.728 C 266.981 297.033,266.638 296.248,266.580 295.983 C 266.521 295.717,266.406 295.500,266.323 295.500 C 266.241 295.500,266.128 295.322,266.074 295.104 C 265.949 294.607,264.201 294.298,263.333 294.619 M193.587 295.045 C 193.367 295.360,193.333 296.718,193.333 305.334 L 193.333 315.261 193.817 315.547 C 194.247 315.801,194.890 315.833,199.542 315.833 C 205.455 315.833,205.336 315.859,205.331 314.570 C 205.326 313.435,205.506 313.477,200.692 313.494 L 196.333 313.510 196.333 309.755 L 196.333 306.000 199.990 306.000 C 204.042 306.000,203.853 306.057,203.921 304.809 C 203.992 303.491,204.018 303.500,199.905 303.500 L 196.333 303.500 196.333 300.250 L 196.333 297.000 200.577 297.000 C 205.472 297.000,205.574 296.955,205.061 295.038 L 204.959 294.659 199.400 294.671 C 193.889 294.683,193.838 294.687,193.587 295.045 M243.242 294.794 C 242.948 295.000,242.947 296.310,243.240 296.759 C 243.508 297.166,243.509 297.167,246.502 297.167 L 249.497 297.167 249.540 306.458 L 249.583 315.750 250.333 315.894 C 250.810 315.985,251.326 315.972,251.750 315.857 L 252.417 315.676 252.372 306.421 L 252.328 297.167 255.321 297.167 C 258.680 297.167,258.833 297.110,258.833 295.869 C 258.833 294.581,259.395 294.666,250.952 294.669 C 246.808 294.671,243.338 294.727,243.242 294.794 " stroke="none" fill="#ed3475" fill-rule="evenodd"></path><path id="path4" d="M200.104 59.141 C 197.183 62.066,194.821 64.547,194.857 64.653 C 194.919 64.841,200.524 70.613,207.833 78.018 C 211.481 81.713,221.094 91.518,222.665 93.146 L 223.530 94.041 222.723 94.891 C 222.280 95.358,221.869 95.780,221.810 95.829 C 221.552 96.043,204.020 113.323,200.246 117.083 C 197.946 119.375,197.153 120.200,198.483 118.917 C 199.813 117.633,203.228 114.296,206.072 111.500 C 208.916 108.704,212.969 104.728,215.080 102.665 C 223.148 94.775,223.833 94.095,223.833 93.978 C 223.833 93.911,223.715 93.739,223.571 93.595 C 223.258 93.282,223.426 93.268,224.440 93.523 C 224.866 93.631,225.111 93.765,225.002 93.832 C 224.897 93.897,227.609 94.000,231.030 94.060 C 234.451 94.120,239.030 94.216,241.206 94.275 L 245.163 94.381 233.373 106.064 C 215.495 123.781,210.373 128.912,210.866 128.611 C 211.114 128.460,211.358 128.405,211.410 128.489 C 211.462 128.573,211.716 128.688,211.975 128.745 C 212.235 128.802,212.983 129.066,213.638 129.333 C 214.293 129.599,215.092 129.867,215.414 129.927 C 215.736 129.988,216.000 130.089,216.000 130.152 C 216.000 130.215,216.487 130.407,217.083 130.577 C 217.679 130.747,218.167 130.940,218.167 131.004 C 218.167 131.069,218.710 131.253,219.375 131.414 C 220.040 131.575,220.621 131.754,220.667 131.813 C 220.713 131.872,221.162 132.062,221.667 132.236 C 222.171 132.409,222.771 132.628,223.000 132.720 C 223.229 132.813,223.749 133.011,224.155 133.160 C 224.561 133.309,224.920 133.509,224.952 133.605 C 225.020 133.809,215.699 143.041,215.499 142.967 C 215.425 142.939,211.771 139.354,207.378 135.000 C 190.626 118.393,183.273 111.333,182.730 111.333 C 182.525 111.333,182.253 111.229,182.126 111.102 C 181.999 110.975,181.460 110.774,180.929 110.655 C 180.397 110.536,179.864 110.340,179.743 110.219 C 179.622 110.099,179.425 109.998,179.304 109.996 C 179.074 109.993,177.999 109.616,175.333 108.603 C 174.463 108.272,173.613 108.001,173.446 108.001 C 173.279 108.000,173.037 107.894,172.907 107.764 C 172.778 107.635,172.290 107.447,171.823 107.347 C 171.356 107.247,170.862 107.053,170.725 106.916 C 170.588 106.779,170.299 106.667,170.082 106.667 C 169.640 106.667,168.802 106.380,168.670 106.184 C 168.622 106.113,168.283 105.976,167.917 105.879 C 167.073 105.656,164.305 104.664,164.083 104.505 C 163.992 104.439,163.542 104.285,163.083 104.163 C 162.625 104.041,162.212 103.897,162.167 103.842 C 161.989 103.631,161.129 103.333,160.696 103.333 C 160.446 103.333,160.112 103.183,159.955 103.000 C 159.798 102.817,159.468 102.667,159.222 102.667 C 158.681 102.667,157.667 102.319,157.667 102.133 C 157.667 102.060,157.493 102.000,157.281 102.000 C 157.069 102.000,156.585 101.850,156.206 101.667 C 155.827 101.483,155.433 101.333,155.332 101.333 C 155.231 101.333,154.813 101.181,154.403 100.994 C 153.993 100.807,153.554 100.676,153.428 100.702 C 153.225 100.744,146.949 94.759,146.595 94.185 C 146.496 94.025,149.027 91.379,155.520 84.856 L 164.583 75.750 155.458 84.833 C 150.440 89.828,146.333 93.998,146.333 94.098 C 146.333 94.198,156.627 104.544,169.208 117.088 C 181.790 129.633,203.727 151.512,217.958 165.709 L 243.834 191.522 243.397 192.094 C 242.968 192.656,242.967 192.667,243.319 192.667 C 243.517 192.667,243.845 192.769,244.048 192.895 C 244.251 193.020,245.054 193.336,245.833 193.598 C 246.612 193.860,247.287 194.114,247.333 194.163 C 247.447 194.284,248.459 194.614,249.157 194.757 C 249.473 194.821,249.834 194.977,249.961 195.104 C 250.087 195.230,250.406 195.333,250.669 195.333 C 250.932 195.333,251.193 195.408,251.250 195.500 C 251.307 195.592,251.499 195.667,251.677 195.667 C 251.854 195.667,252.000 195.727,252.000 195.802 C 252.000 195.876,252.394 196.037,252.875 196.160 C 253.356 196.282,254.162 196.550,254.667 196.755 C 255.171 196.960,256.091 197.333,256.712 197.584 L 257.841 198.041 253.269 202.645 C 250.754 205.178,247.561 208.412,246.173 209.833 C 244.784 211.254,235.571 220.512,225.699 230.407 C 215.827 240.301,207.894 248.289,208.070 248.157 C 208.326 247.964,240.778 215.532,260.558 195.701 L 264.699 191.549 259.831 186.733 C 251.928 178.914,242.054 169.130,234.826 161.957 C 231.110 158.268,227.566 154.788,226.951 154.222 C 226.336 153.657,225.833 153.113,225.833 153.014 C 225.833 152.915,225.769 152.833,225.689 152.833 C 225.552 152.833,216.480 143.884,216.028 143.301 C 215.834 143.052,216.026 142.809,217.679 141.218 C 218.708 140.227,220.196 138.779,220.986 138.000 C 221.776 137.221,224.333 134.746,226.669 132.500 C 229.004 130.254,231.945 127.394,233.204 126.144 C 234.462 124.895,235.611 123.826,235.757 123.771 C 235.902 123.715,235.974 123.593,235.917 123.501 C 235.860 123.409,235.897 123.333,235.999 123.333 C 236.101 123.333,237.091 122.398,238.200 121.256 C 239.310 120.113,240.283 119.219,240.363 119.268 C 240.443 119.318,240.488 119.295,240.462 119.217 C 240.380 118.964,242.060 117.154,242.294 117.244 C 242.420 117.292,242.471 117.254,242.411 117.157 C 242.352 117.063,242.394 116.877,242.504 116.745 C 242.719 116.486,242.293 116.248,241.250 116.045 C 240.975 115.991,240.713 115.903,240.667 115.849 C 240.440 115.580,239.780 115.333,239.289 115.333 C 238.947 115.333,238.633 115.208,238.455 115.000 C 238.289 114.806,237.964 114.667,237.676 114.667 C 237.204 114.667,236.343 114.373,236.167 114.152 C 236.121 114.095,235.783 113.993,235.417 113.926 C 235.050 113.859,234.673 113.740,234.579 113.663 C 234.398 113.513,232.789 112.894,231.000 112.285 C 230.404 112.083,229.892 111.860,229.861 111.792 C 229.831 111.723,229.629 111.667,229.413 111.667 C 229.196 111.667,228.970 111.587,228.910 111.489 C 228.849 111.391,228.686 111.354,228.547 111.407 C 228.069 111.591,229.398 110.224,237.378 102.322 L 245.384 94.395 239.650 88.572 C 236.497 85.370,231.779 80.578,229.167 77.923 C 226.554 75.268,221.900 70.543,218.823 67.423 C 215.747 64.303,211.472 59.966,209.323 57.786 L 205.417 53.821 200.104 59.141 M152.073 66.708 L 151.583 67.250 152.125 66.760 C 152.423 66.491,152.667 66.248,152.667 66.219 C 152.667 66.090,152.529 66.203,152.073 66.708 M131.240 88.708 L 130.750 89.250 131.292 88.760 C 131.590 88.491,131.833 88.248,131.833 88.219 C 131.833 88.090,131.696 88.203,131.240 88.708 M129.075 91.042 L 128.417 91.750 129.125 91.091 C 129.515 90.729,129.833 90.410,129.833 90.383 C 129.833 90.257,129.688 90.383,129.075 91.042 M126.866 93.383 C 126.573 93.685,126.333 94.004,126.333 94.092 C 126.333 94.180,128.827 96.726,131.875 99.751 L 137.417 105.250 131.958 99.749 C 128.956 96.724,126.500 94.177,126.500 94.090 C 126.500 94.004,126.740 93.685,127.033 93.383 C 127.326 93.081,127.528 92.833,127.482 92.833 C 127.436 92.833,127.159 93.081,126.866 93.383 M154.341 101.674 C 154.726 102.044,155.009 102.380,154.969 102.420 C 154.929 102.460,154.566 102.157,154.163 101.747 C 153.251 100.817,153.389 100.760,154.341 101.674 M155.965 123.882 C 166.167 134.084,174.454 142.496,174.382 142.575 C 174.308 142.656,174.351 142.662,174.478 142.588 C 174.674 142.474,137.810 105.333,137.501 105.333 C 137.455 105.333,145.764 113.680,155.965 123.882 M195.272 121.930 C 195.010 122.161,194.828 122.383,194.868 122.423 C 194.908 122.464,195.156 122.272,195.418 121.998 C 195.998 121.393,195.923 121.358,195.272 121.930 M162.998 153.792 L 160.083 156.750 163.042 153.835 C 164.669 152.232,166.000 150.901,166.000 150.877 C 166.000 150.758,165.706 151.043,162.998 153.792 M154.000 162.583 C 153.317 163.271,152.796 163.833,152.842 163.833 C 152.888 163.833,153.484 163.271,154.167 162.583 C 154.850 161.896,155.371 161.333,155.325 161.333 C 155.279 161.333,154.683 161.896,154.000 162.583 M209.460 177.377 L 223.670 191.587 223.210 192.082 L 222.750 192.576 223.297 192.085 L 223.844 191.594 209.631 177.381 C 201.813 169.563,195.380 163.167,195.334 163.167 C 195.288 163.167,201.645 169.561,209.460 177.377 M179.774 178.816 L 167.107 191.465 167.576 192.024 C 168.338 192.932,179.028 204.333,179.118 204.333 C 179.189 204.333,177.605 202.589,174.806 199.585 C 174.378 199.126,173.822 198.525,173.572 198.250 C 173.321 197.975,172.096 196.671,170.849 195.353 C 169.603 194.034,168.508 192.867,168.417 192.760 C 168.325 192.653,168.041 192.337,167.785 192.059 L 167.321 191.552 180.016 178.859 C 186.998 171.878,192.650 166.167,192.576 166.167 C 192.502 166.167,186.741 171.859,179.774 178.816 M128.158 188.125 L 127.583 188.750 128.208 188.176 C 128.790 187.641,128.910 187.500,128.783 187.500 C 128.755 187.500,128.474 187.781,128.158 188.125 M221.910 193.542 L 221.083 194.417 221.958 193.590 C 222.440 193.135,222.833 192.741,222.833 192.715 C 222.833 192.590,222.679 192.729,221.910 193.542 M220.491 195.125 L 219.917 195.750 220.542 195.176 C 221.123 194.641,221.243 194.500,221.116 194.500 C 221.088 194.500,220.807 194.781,220.491 195.125 M218.734 197.042 C 218.126 197.685,217.360 198.648,217.772 198.250 C 218.216 197.822,219.538 196.333,219.474 196.333 C 219.435 196.333,219.102 196.652,218.734 197.042 M215.262 200.818 L 214.774 201.417 215.337 200.880 C 215.646 200.585,215.866 200.316,215.825 200.281 C 215.784 200.247,215.530 200.488,215.262 200.818 M213.491 202.792 L 212.917 203.417 213.542 202.842 C 214.123 202.308,214.243 202.167,214.116 202.167 C 214.088 202.167,213.807 202.448,213.491 202.792 M136.667 203.250 C 136.978 203.571,137.270 203.833,137.315 203.833 C 137.361 203.833,137.144 203.571,136.833 203.250 C 136.522 202.929,136.230 202.667,136.185 202.667 C 136.139 202.667,136.356 202.929,136.667 203.250 M212.158 204.292 L 211.583 204.917 212.208 204.342 C 212.552 204.026,212.833 203.745,212.833 203.717 C 212.833 203.590,212.692 203.710,212.158 204.292 M179.225 204.602 C 180.188 205.603,184.037 209.712,184.926 210.688 C 185.562 211.387,186.188 212.008,186.316 212.067 C 186.443 212.126,186.068 211.664,185.482 211.040 C 183.245 208.657,180.386 205.567,180.075 205.196 C 179.896 204.983,179.600 204.729,179.417 204.632 C 179.233 204.534,179.147 204.521,179.225 204.602 M209.910 206.708 C 208.438 208.262,207.576 209.239,207.877 209.011 C 208.210 208.759,210.905 205.833,210.804 205.833 C 210.768 205.833,210.366 206.227,209.910 206.708 M139.833 206.219 C 139.833 206.248,140.077 206.491,140.375 206.760 L 140.917 207.250 140.427 206.708 C 139.971 206.203,139.833 206.090,139.833 206.219 M141.000 207.385 C 141.000 207.414,141.244 207.658,141.542 207.927 L 142.083 208.417 141.594 207.875 C 141.138 207.370,141.000 207.257,141.000 207.385 M206.658 210.292 L 206.083 210.917 206.708 210.342 C 207.052 210.026,207.333 209.745,207.333 209.717 C 207.333 209.590,207.192 209.710,206.658 210.292 M205.242 211.875 L 204.583 212.583 205.292 211.925 C 205.681 211.562,206.000 211.243,206.000 211.216 C 206.000 211.090,205.855 211.216,205.242 211.875 M187.515 213.417 C 188.105 214.058,188.941 214.958,189.372 215.417 C 189.804 215.875,191.340 217.537,192.787 219.111 C 194.233 220.684,195.486 221.978,195.570 221.986 C 195.654 221.994,195.204 221.456,194.569 220.792 C 193.935 220.127,192.666 218.763,191.750 217.761 C 190.833 216.758,189.264 215.108,188.263 214.094 C 187.262 213.080,186.926 212.775,187.515 213.417 M203.928 213.250 C 203.683 213.571,203.511 213.833,203.544 213.833 C 203.578 213.833,203.838 213.571,204.122 213.250 C 204.406 212.929,204.579 212.667,204.506 212.667 C 204.433 212.667,204.173 212.929,203.928 213.250 M202.741 214.542 C 201.104 216.385,200.968 216.556,201.846 215.667 C 202.883 214.615,203.421 214.000,203.303 214.000 C 203.258 214.000,203.005 214.244,202.741 214.542 M199.909 217.708 L 199.250 218.417 199.958 217.758 C 200.617 217.145,200.743 217.000,200.617 217.000 C 200.590 217.000,200.271 217.319,199.909 217.708 M198.348 219.397 L 197.945 219.917 198.422 219.463 C 198.684 219.214,198.865 218.980,198.824 218.944 C 198.784 218.907,198.569 219.111,198.348 219.397 M196.301 221.625 C 196.008 221.967,195.787 222.333,195.875 222.333 C 195.909 222.333,196.104 222.108,196.307 221.833 C 196.709 221.290,196.705 221.155,196.301 221.625 M206.567 249.542 L 205.583 250.583 195.583 250.669 L 185.583 250.755 195.500 250.792 C 200.954 250.812,205.493 250.773,205.586 250.706 C 205.862 250.506,207.725 248.500,207.634 248.500 C 207.588 248.500,207.108 248.969,206.567 249.542 M133.292 294.284 C 133.498 294.324,133.835 294.324,134.042 294.284 C 134.248 294.245,134.079 294.212,133.667 294.212 C 133.254 294.212,133.085 294.245,133.292 294.284 M177.795 294.287 C 178.094 294.325,178.544 294.324,178.795 294.286 C 179.045 294.248,178.800 294.217,178.250 294.218 C 177.700 294.219,177.495 294.250,177.795 294.287 M133.211 296.786 C 133.464 296.825,133.839 296.824,134.044 296.784 C 134.249 296.744,134.042 296.713,133.583 296.714 C 133.125 296.716,132.957 296.748,133.211 296.786 M185.048 297.583 C 185.049 298.042,185.081 298.209,185.120 297.956 C 185.158 297.703,185.157 297.328,185.117 297.123 C 185.078 296.918,185.046 297.125,185.048 297.583 M200.583 297.000 L 196.250 297.092 200.532 297.129 C 203.248 297.153,204.851 297.106,204.917 297.000 C 204.973 296.908,204.996 296.850,204.968 296.871 C 204.940 296.891,202.967 296.949,200.583 297.000 M220.377 296.953 C 220.631 296.991,221.006 296.990,221.211 296.951 C 221.416 296.911,221.208 296.880,220.750 296.881 C 220.292 296.882,220.124 296.915,220.377 296.953 M249.411 306.333 C 249.411 311.421,249.432 313.502,249.458 310.958 C 249.484 308.415,249.484 304.252,249.458 301.708 C 249.432 299.165,249.411 301.246,249.411 306.333 M252.411 306.333 C 252.411 311.421,252.432 313.502,252.458 310.958 C 252.484 308.415,252.484 304.252,252.458 301.708 C 252.432 299.165,252.411 301.246,252.411 306.333 M130.212 299.667 C 130.212 300.079,130.245 300.248,130.284 300.042 C 130.324 299.835,130.324 299.498,130.284 299.292 C 130.245 299.085,130.212 299.254,130.212 299.667 M127.212 299.833 C 127.212 300.246,127.245 300.415,127.284 300.208 C 127.324 300.002,127.324 299.665,127.284 299.458 C 127.245 299.252,127.212 299.421,127.212 299.833 M170.879 304.500 C 170.879 304.912,170.911 305.081,170.951 304.875 C 170.991 304.669,170.991 304.331,170.951 304.125 C 170.911 303.919,170.879 304.087,170.879 304.500 M214.545 304.500 C 214.545 304.912,214.578 305.081,214.618 304.875 C 214.657 304.669,214.657 304.331,214.618 304.125 C 214.578 303.919,214.545 304.087,214.545 304.500 M178.699 304.124 C 179.679 304.154,181.329 304.154,182.366 304.125 C 183.402 304.095,182.600 304.071,180.583 304.071 C 178.567 304.071,177.719 304.095,178.699 304.124 M211.387 305.500 C 211.387 306.096,211.417 306.340,211.454 306.042 C 211.491 305.744,211.491 305.256,211.454 304.958 C 211.417 304.660,211.387 304.904,211.387 305.500 M176.712 305.333 C 176.712 305.746,176.745 305.915,176.784 305.708 C 176.824 305.502,176.824 305.165,176.784 304.958 C 176.745 304.752,176.712 304.921,176.712 305.333 M185.073 309.333 C 185.073 311.762,185.096 312.756,185.125 311.542 C 185.153 310.327,185.153 308.340,185.125 307.125 C 185.096 305.910,185.073 306.904,185.073 309.333 M170.875 305.917 C 170.877 306.283,170.911 306.414,170.951 306.206 C 170.991 305.999,170.990 305.699,170.948 305.540 C 170.906 305.380,170.874 305.550,170.875 305.917 M271.905 311.417 C 271.905 313.617,271.929 314.494,271.958 313.365 C 271.987 312.237,271.987 310.437,271.958 309.365 C 271.929 308.294,271.905 309.217,271.905 311.417 M136.712 310.167 C 136.712 310.579,136.745 310.748,136.784 310.542 C 136.824 310.335,136.824 309.998,136.784 309.792 C 136.745 309.585,136.712 309.754,136.712 310.167 M226.717 312.667 C 226.717 313.171,226.748 313.377,226.786 313.125 C 226.824 312.873,226.824 312.460,226.786 312.208 C 226.748 311.956,226.717 312.162,226.717 312.667 M126.705 313.000 C 126.705 313.321,126.740 313.452,126.782 313.292 C 126.823 313.131,126.823 312.869,126.782 312.708 C 126.740 312.548,126.705 312.679,126.705 313.000 M170.583 313.333 C 170.941 313.700,171.272 314.000,171.318 314.000 C 171.363 314.000,171.108 313.700,170.750 313.333 C 170.392 312.967,170.062 312.667,170.016 312.667 C 169.970 312.667,170.225 312.967,170.583 313.333 M177.960 313.451 C 178.168 313.491,178.468 313.490,178.627 313.448 C 178.786 313.406,178.617 313.374,178.250 313.375 C 177.883 313.377,177.753 313.411,177.960 313.451 M198.365 313.458 C 199.529 313.486,201.479 313.486,202.698 313.458 C 203.918 313.429,202.967 313.406,200.583 313.406 C 198.200 313.406,197.202 313.429,198.365 313.458 M132.042 316.119 C 132.294 316.158,132.706 316.158,132.958 316.119 C 133.210 316.081,133.004 316.050,132.500 316.050 C 131.996 316.050,131.790 316.081,132.042 316.119 M177.625 316.121 C 177.923 316.158,178.410 316.158,178.708 316.121 C 179.006 316.084,178.762 316.053,178.167 316.053 C 177.571 316.053,177.327 316.084,177.625 316.121 " stroke="none" fill="#f36b5e" fill-rule="evenodd"></path></g></svg>