<?xml version="1.0" encoding="UTF-8"?>
<svg xmlns="http://www.w3.org/2000/svg" xmlns:xlink="http://www.w3.org/1999/xlink" width="2576pt" height="2576pt" viewBox="0 0 2576 2576" version="1.1">
<g id="surface1">
<path style=" stroke:none;fill-rule:evenodd;fill:rgb(60%,60%,60%);fill-opacity:1;" d="M 1205.621094 218.691406 C 1220.824219 218.855469 1245.695312 218.855469 1260.902344 218.691406 C 1276.097656 218.523438 1263.664062 218.386719 1233.261719 218.386719 C 1202.855469 218.386719 1190.421875 218.523438 1205.621094 218.691406 M 1327.050781 218.753906 C 1327.347656 219.230469 1240.917969 306.292969 1134.984375 412.222656 C 1029.054688 518.148438 942.382812 605.300781 942.382812 605.894531 C 942.382812 606.488281 1083.414062 748.007812 1255.78125 920.386719 L 1569.175781 1233.792969 L 1565.121094 1238.089844 C 1562.886719 1240.453125 1534.535156 1270.882812 1502.125 1305.710938 C 1469.703125 1340.539062 1432.558594 1380.386719 1419.570312 1394.261719 C 1381.792969 1434.613281 1371.269531 1445.902344 1347.035156 1472.074219 C 1334.464844 1485.65625 1323.640625 1496.902344 1322.96875 1497.0625 C 1321.898438 1497.332031 1263.285156 1435.167969 1262.441406 1432.863281 C 1262.253906 1432.351562 1272.34375 1420.683594 1284.871094 1406.925781 C 1297.394531 1393.171875 1318.800781 1369.628906 1332.4375 1354.601562 C 1346.074219 1339.585938 1365.195312 1318.542969 1374.941406 1307.859375 C 1384.675781 1297.171875 1396.515625 1284.105469 1401.226562 1278.824219 C 1405.949219 1273.542969 1412.976562 1265.832031 1416.84375 1261.707031 C 1420.710938 1257.570312 1428.167969 1249.449219 1433.414062 1243.652344 L 1442.953125 1233.117188 L 1351.375 1141.542969 L 1259.800781 1049.957031 L 1243.820312 1065.671875 C 1235.03125 1074.3125 1227.464844 1081.515625 1227.007812 1081.667969 C 1226.542969 1081.828125 1211.699219 1067.714844 1194.019531 1050.300781 C 1176.34375 1032.878906 1161.550781 1018.742188 1161.144531 1018.878906 C 1160.734375 1019.019531 1149.386719 1029.96875 1135.917969 1043.210938 C 1106.9375 1071.71875 1068.117188 1109.855469 1026.605469 1150.617188 C 966.191406 1209.921875 942.382812 1233.570312 942.382812 1234.265625 C 942.382812 1234.65625 964.96875 1257.410156 992.566406 1284.824219 C 1020.160156 1312.246094 1105.464844 1397.164062 1182.121094 1473.535156 L 1321.496094 1612.390625 L 1327.523438 1606.632812 C 1330.832031 1603.46875 1332.597656 1602.054688 1331.4375 1603.484375 C 1330.273438 1604.917969 1327.453125 1607.9375 1325.171875 1610.191406 L 1321.011719 1614.296875 L 1258.621094 1614.28125 L 1196.230469 1614.277344 L 1184.960938 1603.238281 C 1167.714844 1586.347656 1131.46875 1551.046875 1089.957031 1510.726562 C 1040.59375 1462.773438 1019.863281 1442.625 1016.507812 1439.320312 C 1015.003906 1437.832031 1005.308594 1428.4375 994.980469 1418.441406 C 984.648438 1408.449219 966.777344 1391.066406 955.265625 1379.820312 C 943.757812 1368.570312 918.878906 1344.414062 899.988281 1326.136719 C 881.101562 1307.859375 857.191406 1284.632812 846.859375 1274.519531 C 836.53125 1264.402344 822.8125 1251.066406 816.378906 1244.878906 L 804.679688 1233.628906 L 834.996094 1203.65625 C 878.433594 1160.726562 895.882812 1143.539062 965.035156 1075.539062 C 998.921875 1042.21875 1048.992188 992.707031 1076.304688 965.511719 L 1125.96875 916.0625 L 970.5 760.78125 L 815.039062 605.5 L 834.882812 584.230469 C 845.789062 572.535156 863.222656 554.027344 873.625 543.105469 C 884.023438 532.183594 896.609375 518.902344 901.59375 513.589844 C 906.578125 508.277344 914.054688 500.316406 918.203125 495.90625 C 922.355469 491.496094 929.386719 484.011719 933.839844 479.269531 C 953.828125 457.980469 958.664062 452.878906 969.753906 441.339844 C 976.253906 434.585938 982.0625 428.519531 982.679688 427.855469 C 1005.671875 403.007812 1032.910156 373.964844 1036.699219 370.261719 C 1043.957031 363.15625 1070.398438 334.96875 1073.914062 330.585938 C 1078.03125 325.457031 1050.578125 353.652344 1032.105469 373.519531 C 1027.445312 378.535156 1019.929688 386.507812 1015.40625 391.230469 C 1010.894531 395.949219 994.457031 413.339844 978.894531 429.871094 C 941.558594 469.507812 920.167969 492.195312 915.554688 497.027344 C 908.085938 504.851562 879.433594 535.214844 872.621094 542.53125 C 868.78125 546.652344 862.503906 553.234375 858.664062 557.15625 C 835.511719 580.824219 813.585938 604.59375 813.585938 606.03125 C 813.585938 606.546875 883.363281 676.746094 968.648438 762.027344 L 1123.703125 917.082031 L 1099.824219 940.734375 C 1072.652344 967.65625 1037.285156 1002.496094 944.523438 1093.71875 C 877.785156 1159.347656 824.875 1211.570312 810.769531 1225.738281 L 802.757812 1233.773438 L 823.109375 1253.644531 C 834.296875 1264.570312 853.46875 1283.171875 865.703125 1294.972656 C 877.9375 1306.785156 894.363281 1322.722656 902.191406 1330.394531 C 910.03125 1338.070312 922.878906 1350.558594 930.753906 1358.144531 C 938.628906 1365.738281 952.566406 1379.261719 961.730469 1388.199219 C 970.894531 1397.140625 991.871094 1417.496094 1008.347656 1433.433594 C 1024.824219 1449.375 1041.484375 1465.558594 1045.378906 1469.394531 C 1049.277344 1473.226562 1059.449219 1483.117188 1067.996094 1491.363281 C 1076.542969 1499.613281 1091.496094 1514.101562 1101.238281 1523.574219 C 1130.398438 1551.929688 1181.785156 1601.632812 1189.253906 1608.710938 L 1196.230469 1615.320312 L 1259.792969 1615.34375 L 1323.355469 1615.363281 L 1513.910156 1424.8125 C 1618.707031 1320.007812 1704.457031 1233.960938 1704.457031 1233.59375 C 1704.457031 1233.105469 1666.355469 1195.117188 1639.515625 1168.839844 C 1634.542969 1163.972656 1623.058594 1152.59375 1591.871094 1121.636719 C 1571.945312 1101.859375 1531.765625 1062.058594 1502.585938 1033.203125 C 1473.40625 1004.335938 1436.105469 967.390625 1419.699219 951.105469 L 1389.863281 921.488281 L 1399.300781 912.328125 C 1404.5 907.285156 1422.71875 889.652344 1439.785156 873.136719 C 1456.851562 856.617188 1476.261719 837.792969 1482.90625 831.292969 C 1489.550781 824.804688 1505.246094 809.585938 1517.785156 797.484375 C 1530.316406 785.382812 1546.785156 769.445312 1554.378906 762.066406 C 1561.96875 754.691406 1575.976562 741.160156 1585.503906 732.015625 C 1595.027344 722.863281 1608.757812 709.578125 1616.015625 702.496094 C 1623.265625 695.410156 1633.222656 685.75 1638.144531 681.03125 C 1643.054688 676.308594 1660.546875 659.40625 1677.015625 643.464844 C 1693.476562 627.527344 1707.882812 613.589844 1709.019531 612.503906 C 1711.054688 610.5625 1710.816406 610.242188 1696.238281 595.457031 C 1668.367188 567.183594 1653.484375 551.933594 1631.464844 529.089844 C 1619.363281 516.53125 1603.425781 500.089844 1596.042969 492.558594 C 1580.460938 476.644531 1562.800781 458.484375 1522.527344 416.964844 C 1506.585938 400.53125 1489.917969 383.417969 1485.496094 378.9375 C 1477.730469 371.085938 1427.859375 319.707031 1413.027344 304.289062 C 1403.992188 294.902344 1344.523438 233.65625 1335.644531 224.59375 C 1330.15625 219.003906 1325.0625 215.539062 1327.050781 218.753906 M 1171.042969 226.738281 C 1167.847656 230.429688 1166.582031 232.246094 1168.230469 230.765625 C 1171.210938 228.09375 1177.980469 220.035156 1177.238281 220.035156 C 1177.027344 220.035156 1174.238281 223.050781 1171.042969 226.738281 M 1152.761719 246.007812 C 1146.558594 252.609375 1138.519531 261.175781 1134.890625 265.050781 C 1128.359375 272.007812 1120.316406 281.609375 1124.488281 277.453125 C 1126.5625 275.394531 1156.753906 243.03125 1162.285156 236.941406 C 1163.757812 235.316406 1164.757812 233.992188 1164.5 233.996094 C 1164.242188 234.003906 1158.960938 239.40625 1152.761719 246.007812 M 1114.441406 286.269531 C 1108.34375 293.386719 1105.773438 297.578125 1110.957031 291.945312 C 1118.578125 283.675781 1120.734375 281.027344 1120.265625 280.558594 C 1119.988281 280.289062 1117.371094 282.859375 1114.441406 286.269531 M 1098.488281 303.484375 C 1093.371094 309.4375 1093.074219 309.964844 1096.835938 306.433594 C 1101.214844 302.339844 1106.210938 296.238281 1105.199219 296.238281 C 1104.9375 296.238281 1101.917969 299.5 1098.488281 303.484375 M 1082.964844 320.121094 C 1078.699219 325.125 1078.269531 325.871094 1081.28125 323.074219 C 1085.144531 319.488281 1090.078125 313.414062 1089.132812 313.414062 C 1088.882812 313.414062 1086.105469 316.429688 1082.964844 320.121094 M 1265.273438 427.988281 C 1270.832031 433.746094 1285.589844 448.855469 1298.058594 461.5625 C 1310.535156 474.265625 1340.054688 504.453125 1363.671875 528.640625 C 1387.285156 552.828125 1413.980469 580.078125 1422.996094 589.1875 L 1439.390625 605.765625 L 1434.804688 610.613281 C 1432.28125 613.289062 1429.429688 616.082031 1428.460938 616.828125 C 1427.492188 617.578125 1414.140625 630.636719 1398.789062 645.855469 C 1383.433594 661.066406 1350.460938 693.5625 1325.527344 718.058594 C 1300.582031 742.558594 1274.546875 768.246094 1267.664062 775.144531 L 1255.144531 787.683594 L 1244.292969 777.289062 C 1238.328125 771.578125 1196.886719 730.667969 1152.199219 686.394531 C 1107.519531 642.121094 1070.535156 605.738281 1070.019531 605.546875 C 1069.496094 605.347656 1074.5 599.726562 1081.128906 593.046875 C 1087.761719 586.367188 1107.195312 566.605469 1124.316406 549.132812 C 1154.996094 517.820312 1192.367188 479.863281 1233.144531 438.589844 C 1244.59375 427.003906 1254.230469 417.523438 1254.558594 417.523438 C 1254.886719 417.523438 1259.710938 422.238281 1265.273438 427.988281 M 1552.574219 607.515625 L 1579.410156 607.542969 L 1543.988281 642.628906 C 1428.976562 756.546875 1326.113281 857.054688 1324.535156 857.054688 C 1324.097656 857.054688 1308.332031 841.933594 1289.5 823.445312 L 1255.265625 789.832031 L 1280.484375 765.070312 C 1326.921875 719.496094 1424.761719 622.839844 1432.898438 614.5 L 1440.949219 606.25 L 1483.34375 606.867188 C 1506.664062 607.207031 1537.820312 607.5 1552.574219 607.515625 M 1155.980469 945.9375 C 1155.980469 946.125 1157.550781 947.699219 1159.46875 949.429688 L 1162.953125 952.585938 L 1159.804688 949.09375 C 1156.867188 945.84375 1155.980469 945.113281 1155.980469 945.9375 M 1350.003906 1143.390625 L 1440.453125 1233.839844 L 1430.117188 1245.089844 C 1424.429688 1251.273438 1416.8125 1259.515625 1413.1875 1263.398438 C 1409.566406 1267.28125 1403.398438 1274.042969 1399.476562 1278.421875 C 1395.554688 1282.804688 1386.378906 1292.925781 1379.082031 1300.914062 C 1371.785156 1308.898438 1356.882812 1325.292969 1345.960938 1337.351562 C 1321.636719 1364.210938 1325.113281 1360.390625 1281.695312 1407.835938 C 1278.371094 1411.46875 1272.285156 1418.074219 1268.171875 1422.523438 L 1260.6875 1430.605469 L 1258.96875 1427.992188 C 1258.023438 1426.550781 1254.628906 1422.835938 1251.425781 1419.722656 C 1248.226562 1416.621094 1241.980469 1410 1237.554688 1405.015625 C 1233.125 1400.03125 1227.761719 1394.246094 1225.636719 1392.152344 C 1222.164062 1388.753906 1184.773438 1348.5625 1150.195312 1311.074219 C 1143.121094 1303.40625 1134.398438 1294.027344 1130.824219 1290.242188 C 1117.527344 1276.183594 1111.242188 1269.480469 1103.925781 1261.519531 C 1099.789062 1257.03125 1093.472656 1250.402344 1089.878906 1246.796875 C 1086.292969 1243.191406 1082.234375 1238.617188 1080.871094 1236.632812 L 1078.390625 1233.035156 L 1168.433594 1142.992188 C 1217.957031 1093.460938 1258.722656 1052.941406 1259.019531 1052.941406 C 1259.316406 1052.941406 1300.261719 1093.640625 1350.003906 1143.390625 M 847.105469 1896.027344 C 826.746094 1901.769531 817.410156 1915.359375 819.445312 1936.296875 C 821.125 1953.601562 832.027344 1963.550781 864.046875 1976.996094 C 869.277344 1979.191406 879.035156 1988.960938 879.1875 1992.167969 C 879.730469 2003.34375 879.246094 2005.769531 875.671875 2009.839844 C 865.632812 2021.285156 848.960938 2021.910156 829.40625 2011.578125 C 817.785156 2005.441406 816.425781 2005.828125 815.953125 2015.46875 C 814.808594 2038.890625 871.667969 2044.421875 890.582031 2022.734375 C 901.933594 2009.710938 904.285156 1989.085938 895.824219 1976.804688 C 888.695312 1966.449219 887.800781 1965.816406 861.882812 1952.828125 C 844.652344 1944.191406 839.34375 1938.789062 839.34375 1929.867188 C 839.34375 1913.351562 859.734375 1907.097656 880.058594 1917.367188 C 891.347656 1923.074219 893.015625 1922.480469 893.015625 1912.738281 C 893.015625 1903.980469 892.050781 1902.871094 880.398438 1898.195312 C 871.300781 1894.546875 855.921875 1893.539062 847.105469 1896.027344 M 1137.195312 1895.164062 C 1110.351562 1898.878906 1089.492188 1917.8125 1082.96875 1944.382812 C 1072.226562 1988.136719 1093.222656 2027.996094 1130.464844 2034.550781 C 1151.382812 2038.226562 1178.378906 2034.246094 1188.792969 2025.945312 L 1191.933594 2023.441406 L 1192.25 1993.457031 C 1192.664062 1954.578125 1195.484375 1958.402344 1166.066406 1957.964844 C 1137.414062 1957.542969 1135.398438 1958.273438 1137.199219 1968.519531 C 1138.308594 1974.820312 1138.648438 1974.933594 1156.109375 1974.933594 L 1172.078125 1974.933594 L 1172.078125 2013.3125 L 1169.128906 2014.496094 C 1133.175781 2028.949219 1101.238281 2005.957031 1101.238281 1965.617188 C 1101.238281 1920.753906 1141.027344 1898.558594 1180.574219 1921.359375 C 1190.71875 1927.207031 1192.476562 1926.5 1192.476562 1916.558594 C 1192.476562 1902.226562 1164.460938 1891.390625 1137.195312 1895.164062 M 1408.242188 1896.109375 C 1376.859375 1902.910156 1361.480469 1926.757812 1361.558594 1968.496094 C 1361.617188 2000.300781 1370.496094 2019.042969 1390.671875 2029.933594 C 1413.179688 2042.078125 1458.265625 2034.117188 1461.390625 2017.445312 C 1463.289062 2007.308594 1458.046875 2002.5625 1451.023438 2008.0625 C 1436.875 2019.140625 1413.863281 2021.21875 1401.351562 2012.558594 C 1372.878906 1992.851562 1375.964844 1929.863281 1406.066406 1916.085938 C 1419.054688 1910.148438 1446.984375 1915.148438 1452.730469 1924.445312 C 1453.753906 1926.101562 1458.203125 1925.792969 1459.730469 1923.957031 C 1461.867188 1921.378906 1460.667969 1908.867188 1458.0625 1906.523438 C 1447.949219 1897.4375 1424.617188 1892.5625 1408.242188 1896.109375 M 981.023438 1896.464844 C 977.546875 1897.421875 971.460938 1910.5625 966.554688 1927.703125 C 965.792969 1930.363281 962.414062 1939.742188 959.039062 1948.550781 C 955.664062 1957.355469 952.28125 1966.769531 951.515625 1969.480469 C 950.75 1972.1875 948.585938 1978.257812 946.707031 1982.984375 C 944.824219 1987.707031 942.035156 1995.195312 940.515625 1999.621094 C 938.996094 2004.050781 936.34375 2011.535156 934.617188 2016.253906 C 929.234375 2030.996094 929.035156 2031.773438 930.265625 2033.003906 C 931.867188 2034.609375 939.28125 2035.425781 944.773438 2034.601562 L 949.449219 2033.898438 L 954.609375 2019.179688 C 957.449219 2011.078125 960.898438 2000.339844 962.277344 1995.324219 C 963.65625 1990.308594 965.808594 1983.546875 967.054688 1980.300781 C 970.546875 1971.238281 979.640625 1945.75 980.464844 1942.734375 C 982.15625 1936.515625 987.8125 1921.265625 988.417969 1921.277344 C 989.285156 1921.296875 993.757812 1932.902344 998.542969 1947.566406 C 1000.660156 1954.058594 1004.574219 1965.164062 1007.25 1972.25 C 1009.921875 1979.335938 1012.652344 1987.785156 1013.320312 1991.035156 C 1013.984375 1994.28125 1014.890625 1997.417969 1015.335938 1998.011719 C 1016.304688 1999.304688 1024.238281 2020.960938 1025.949219 2026.988281 C 1027.785156 2033.4375 1028.480469 2034.035156 1034.960938 2034.707031 C 1049.789062 2036.230469 1051.109375 2034.183594 1045.171875 2018.785156 C 1042.816406 2012.675781 1040.015625 2004.773438 1038.945312 2001.230469 C 1037.875 1997.6875 1035.699219 1991.410156 1034.101562 1987.273438 C 1032.507812 1983.144531 1028.894531 1973.164062 1026.085938 1965.09375 C 1023.269531 1957.027344 1018.570312 1943.984375 1015.640625 1936.113281 C 1012.703125 1928.246094 1009.457031 1919.144531 1008.421875 1915.898438 C 1004.222656 1902.738281 1000.910156 1896.960938 997.132812 1896.207031 C 992.808594 1895.34375 984.613281 1895.472656 981.023438 1896.464844 M 1508.300781 1896.546875 L 1505.882812 1897.585938 L 1505.882812 2033.835938 L 1510.804688 2034.570312 C 1513.503906 2034.976562 1517.734375 2034.886719 1520.195312 2034.363281 L 1524.671875 2033.421875 L 1524.945312 1966.210938 C 1525.183594 1908.824219 1525 1898.816406 1523.679688 1897.71875 C 1521.636719 1896.027344 1511.351562 1895.242188 1508.300781 1896.546875 M 1694.523438 1896.179688 C 1690.65625 1897.328125 1692.914062 1903.140625 1711.964844 1941.191406 L 1731.277344 1979.765625 L 1731.296875 2005.527344 C 1731.324219 2036.574219 1731.21875 2036.367188 1745.890625 2034.539062 L 1751.679688 2033.808594 L 1751.679688 1982.058594 L 1771.25 1942.804688 C 1782.019531 1921.21875 1791.242188 1903.257812 1791.742188 1902.898438 C 1793.625 1901.546875 1791.941406 1897.210938 1789.246094 1896.464844 C 1783.816406 1894.957031 1775.617188 1895.433594 1773.304688 1897.386719 C 1771.574219 1898.839844 1757.042969 1926.332031 1757.042969 1928.148438 C 1757.042969 1928.367188 1753.910156 1935.046875 1750.070312 1942.988281 C 1746.230469 1950.933594 1743.039062 1958.589844 1742.964844 1960.007812 C 1742.863281 1962.214844 1742.765625 1962.28125 1742.324219 1960.445312 C 1740.925781 1954.71875 1713.535156 1898.085938 1711.585938 1896.882812 C 1710.230469 1896.046875 1696.84375 1895.5 1694.523438 1896.179688 M 1247.453125 1898.246094 L 1245.066406 1899.921875 L 1245.066406 1965.257812 C 1245.066406 2023.222656 1245.257812 2030.78125 1246.75 2032.277344 C 1248.21875 2033.746094 1253.171875 2033.964844 1284.742188 2033.964844 C 1325.179688 2033.964844 1322.34375 2034.542969 1322.34375 2026.292969 C 1322.34375 2017.496094 1323.660156 2017.863281 1292.257812 2017.863281 L 1264.382812 2017.863281 L 1264.382812 1970.640625 L 1312.742188 1970.640625 L 1313.785156 1967.882812 C 1315.175781 1964.230469 1315.105469 1960.613281 1313.585938 1957.277344 L 1312.34375 1954.539062 L 1264.382812 1954.539062 L 1264.382812 1913.753906 L 1291.714844 1913.753906 C 1322.578125 1913.753906 1321.277344 1914.128906 1321.277344 1905.164062 C 1321.277344 1896.058594 1323.515625 1896.578125 1284.445312 1896.578125 C 1254.859375 1896.578125 1249.488281 1896.824219 1247.453125 1898.246094 M 1566.035156 1898.652344 C 1565.421875 1899.800781 1564.921875 1903.105469 1564.921875 1906 C 1564.921875 1914.695312 1565.667969 1914.984375 1587.332031 1914.605469 L 1605.710938 1914.289062 L 1605.722656 1972.785156 C 1605.730469 2007.78125 1606.148438 2031.929688 1606.753906 2032.894531 C 1607.515625 2034.09375 1609.84375 2034.503906 1615.90625 2034.503906 C 1621.960938 2034.503906 1624.289062 2034.09375 1625.050781 2032.894531 C 1625.65625 2031.929688 1626.074219 2007.78125 1626.082031 1972.785156 L 1626.101562 1914.289062 L 1644.832031 1914.605469 C 1666.789062 1914.972656 1667.960938 1914.523438 1667.960938 1905.632812 C 1667.960938 1895.8125 1672.332031 1896.578125 1616.441406 1896.578125 C 1568.796875 1896.578125 1567.101562 1896.652344 1566.035156 1898.652344 "/>
<path style=" stroke:none;fill-rule:evenodd;fill:rgb(42.352941%,42.352941%,42.352941%);fill-opacity:1;" d="M 1217.101562 329.246094 L 1213.40625 333.269531 L 1217.429688 329.574219 C 1219.640625 327.539062 1221.457031 325.722656 1221.457031 325.546875 C 1221.457031 324.722656 1220.546875 325.496094 1217.101562 329.246094 M 1206.921875 339.441406 L 1201.59375 345.074219 L 1207.230469 339.75 C 1210.332031 336.820312 1212.863281 334.289062 1212.863281 334.113281 C 1212.863281 333.316406 1211.871094 334.203125 1206.921875 339.441406 M 1116.257812 430.140625 L 1093.191406 453.484375 L 1116.535156 430.417969 C 1129.375 417.730469 1139.878906 407.226562 1139.878906 407.074219 C 1139.878906 406.304688 1137.691406 408.445312 1116.257812 430.140625 M 1088.300781 458.046875 L 1084.605469 462.070312 L 1088.628906 458.375 C 1092.371094 454.929688 1093.144531 454.019531 1092.328125 454.019531 C 1092.148438 454.019531 1090.335938 455.828125 1088.300781 458.046875 M 1035.757812 510.640625 L 1012.691406 533.984375 L 1036.035156 510.917969 C 1057.726562 489.484375 1059.863281 487.296875 1059.101562 487.296875 C 1058.949219 487.296875 1048.445312 497.800781 1035.757812 510.640625 M 852.71875 565.914062 L 847.394531 571.550781 L 853.03125 566.222656 C 856.132812 563.292969 858.664062 560.757812 858.664062 560.589844 C 858.664062 559.789062 857.671875 560.679688 852.71875 565.914062 M 959.011719 587.378906 L 940.773438 605.894531 L 959.289062 587.664062 C 976.492188 570.71875 978.292969 568.863281 977.527344 568.863281 C 977.371094 568.863281 969.039062 577.199219 959.011719 587.378906 M 834.308594 587.832031 C 833.328125 590.394531 819.941406 603.285156 818.910156 602.648438 C 818.480469 602.382812 817.589844 602.804688 816.941406 603.589844 C 815.988281 604.734375 817.003906 605.050781 822.285156 605.242188 C 826.644531 605.398438 828.582031 605.101562 828.113281 604.347656 C 827.636719 603.574219 831.546875 603.214844 840.355469 603.214844 C 853.390625 603.214844 856.121094 602.308594 850.613281 599.796875 C 849.140625 599.125 847.933594 598.191406 847.933594 597.714844 C 847.933594 596.78125 837.59375 586.800781 836.019531 586.21875 C 835.488281 586.019531 834.71875 586.75 834.308594 587.832031 M 907.292969 606.160156 C 913.667969 606.351562 923.8125 606.351562 929.832031 606.160156 C 935.855469 605.972656 930.632812 605.8125 918.234375 605.816406 C 905.835938 605.816406 900.917969 605.972656 907.292969 606.160156 M 1103.398438 938.617188 C 1102.667969 939.5 1101.523438 939.90625 1100.847656 939.519531 C 1100.175781 939.140625 1099.992188 939.222656 1100.433594 939.710938 C 1100.878906 940.203125 1100.410156 941.605469 1099.386719 942.835938 C 1098.367188 944.066406 1099.328125 943.410156 1101.53125 941.375 C 1103.730469 939.339844 1105.535156 937.523438 1105.535156 937.347656 C 1105.535156 936.589844 1104.632812 937.121094 1103.398438 938.617188 M 1072.554688 970.558594 C 1061.851562 981.332031 1048.265625 994.714844 1042.351562 1000.292969 C 1036.445312 1005.871094 1031.707031 1010.9375 1031.808594 1011.5625 C 1031.917969 1012.179688 1031.476562 1012.59375 1030.820312 1012.472656 C 1029.402344 1012.214844 1014.300781 1027.46875 1014.300781 1029.164062 C 1014.300781 1029.800781 1013.210938 1030.890625 1011.886719 1031.570312 C 1010.558594 1032.261719 1007.621094 1034.8125 1005.359375 1037.246094 C 1003.105469 1039.679688 996.707031 1046.300781 991.140625 1051.96875 C 985.578125 1057.628906 981.023438 1062.753906 981.023438 1063.359375 C 981.023438 1064.9375 971.269531 1072.324219 970.121094 1071.617188 C 969.601562 1071.292969 969.296875 1071.667969 969.464844 1072.445312 C 969.625 1073.234375 969.226562 1073.773438 968.582031 1073.65625 C 967.9375 1073.542969 965.277344 1075.710938 962.675781 1078.488281 L 957.949219 1083.53125 L 962.507812 1079.285156 C 967.210938 1074.914062 968.886719 1075.023438 964.746094 1079.433594 C 961.554688 1082.820312 962.671875 1083.460938 972.523438 1083.910156 C 977.199219 1084.121094 981.023438 1084.664062 981.023438 1085.113281 C 981.023438 1085.566406 983.078125 1086.441406 985.589844 1087.050781 C 996.671875 1089.785156 1005.496094 1091.824219 1009.46875 1092.589844 C 1011.832031 1093.046875 1017.628906 1094.421875 1022.351562 1095.636719 C 1027.070312 1096.855469 1034.683594 1098.4375 1039.253906 1099.152344 C 1043.828125 1099.875 1047.574219 1100.878906 1047.574219 1101.386719 C 1047.574219 1101.898438 1049.222656 1102.316406 1051.246094 1102.316406 C 1053.261719 1102.316406 1057.925781 1103.082031 1061.601562 1104.027344 L 1068.285156 1105.742188 L 1070.886719 1102.417969 C 1072.316406 1100.589844 1074.289062 1099.09375 1075.273438 1099.09375 C 1076.324219 1099.09375 1072.007812 1104.15625 1064.746094 1111.433594 C 1057.976562 1118.222656 1052.675781 1123.78125 1052.972656 1123.78125 C 1053.269531 1123.78125 1060.015625 1117.152344 1067.984375 1109.058594 C 1075.945312 1100.957031 1081.003906 1095.519531 1079.234375 1096.976562 L 1076.015625 1099.625 L 1079.132812 1096.179688 C 1080.84375 1094.277344 1082.578125 1092.933594 1082.984375 1093.183594 C 1083.871094 1093.730469 1092.914062 1084.683594 1092.183594 1083.960938 C 1091.902344 1083.679688 1093.671875 1081.535156 1096.113281 1079.195312 C 1098.554688 1076.859375 1100.164062 1075.667969 1099.699219 1076.554688 C 1099.238281 1077.4375 1102.667969 1074.300781 1107.324219 1069.574219 C 1111.980469 1064.855469 1117.566406 1059.597656 1119.734375 1057.890625 C 1121.90625 1056.1875 1123.585938 1054.253906 1123.464844 1053.597656 C 1123.34375 1052.941406 1123.765625 1052.496094 1124.40625 1052.613281 C 1125.046875 1052.726562 1133.464844 1044.882812 1143.113281 1035.183594 L 1160.648438 1017.550781 L 1136.480469 993.652344 C 1109.558594 967.042969 1092.957031 950.976562 1092.390625 950.976562 C 1092.183594 950.976562 1083.257812 959.785156 1072.554688 970.558594 M 1225.746094 1018.054688 C 1243.152344 1035.46875 1257.636719 1049.71875 1257.929688 1049.71875 C 1258.226562 1049.71875 1244.226562 1035.46875 1226.820312 1018.054688 C 1209.414062 1000.640625 1194.929688 986.394531 1194.632812 986.394531 C 1194.335938 986.394531 1208.335938 1000.640625 1225.746094 1018.054688 M 1192.429688 1047.839844 C 1196.875 1052.578125 1197.839844 1053.4375 1197.839844 1052.625 C 1197.839844 1052.457031 1195.546875 1050.15625 1192.738281 1047.53125 L 1187.644531 1042.746094 L 1192.429688 1047.839844 M 1205.890625 1061.523438 C 1208.792969 1064.480469 1211.414062 1066.894531 1211.710938 1066.894531 C 1212.007812 1066.894531 1209.871094 1064.480469 1206.964844 1061.523438 C 1204.054688 1058.574219 1201.433594 1056.160156 1201.144531 1056.160156 C 1200.847656 1056.160156 1202.984375 1058.574219 1205.890625 1061.523438 M 1236.757812 1071.429688 L 1226.851562 1081.332031 L 1221.203125 1076.007812 L 1215.550781 1070.675781 L 1221.183594 1076.554688 L 1226.828125 1082.433594 L 1237.277344 1071.984375 C 1243.03125 1066.230469 1247.492188 1061.523438 1247.195312 1061.523438 C 1246.90625 1061.523438 1242.207031 1065.980469 1236.757812 1071.429688 M 1090.503906 1085.46875 C 1090.503906 1085.640625 1088.816406 1087.433594 1086.75 1089.433594 C 1084.683594 1091.4375 1082.996094 1092.6875 1082.996094 1092.222656 C 1082.996094 1091.753906 1084.496094 1089.964844 1086.324219 1088.257812 C 1089.410156 1085.371094 1090.503906 1084.644531 1090.503906 1085.46875 M 899.9375 1140.152344 L 895.695312 1144.710938 L 900.261719 1140.464844 C 904.496094 1136.519531 905.316406 1135.585938 904.496094 1135.585938 C 904.324219 1135.585938 902.277344 1137.640625 899.9375 1140.152344 M 1003.550781 1171.808594 L 991.226562 1184.425781 L 1003.835938 1172.097656 C 1010.769531 1165.316406 1016.445312 1159.644531 1016.445312 1159.484375 C 1016.445312 1158.710938 1014.996094 1160.09375 1003.550781 1171.808594 M 844.121094 1194.890625 L 839.886719 1199.449219 L 844.445312 1195.207031 C 848.6875 1191.257812 849.5 1190.324219 848.6875 1190.324219 C 848.515625 1190.324219 846.460938 1192.378906 844.121094 1194.890625 M 944.542969 1229.492188 L 940.910156 1233.246094 L 873.761719 1233.53125 L 806.609375 1233.8125 L 873.746094 1234.070312 L 940.878906 1234.335938 L 945.070312 1230.039062 C 947.375 1227.675781 949.019531 1225.746094 948.722656 1225.746094 C 948.417969 1225.746094 946.539062 1227.433594 944.542969 1229.492188 M 1463.722656 1234.085938 L 1442.496094 1234.378906 L 1441.277344 1237.039062 C 1440.613281 1238.503906 1439.726562 1239.699219 1439.300781 1239.699219 C 1438.882812 1239.699219 1436.667969 1241.484375 1434.375 1243.667969 C 1432.089844 1245.851562 1431.179688 1246.953125 1432.367188 1246.113281 C 1433.542969 1245.285156 1431.367188 1247.558594 1427.535156 1251.167969 C 1423.695312 1254.789062 1417.902344 1260.972656 1414.65625 1264.90625 C 1411.402344 1268.847656 1406.574219 1274.335938 1403.921875 1277.109375 C 1398.472656 1282.789062 1380.992188 1301.878906 1373.792969 1310.003906 C 1371.179688 1312.953125 1364.441406 1320.4375 1358.828125 1326.640625 C 1344.992188 1341.914062 1343.179688 1344.351562 1350.820312 1337.375 C 1354.378906 1334.125 1358.671875 1329.601562 1360.367188 1327.324219 C 1362.949219 1323.84375 1363.605469 1323.453125 1364.417969 1324.90625 C 1364.953125 1325.859375 1366.078125 1326.640625 1366.914062 1326.640625 C 1367.757812 1326.640625 1369.242188 1327.851562 1370.207031 1329.324219 C 1371.171875 1330.800781 1372.609375 1332.003906 1373.402344 1332.003906 C 1374.1875 1332.003906 1375.230469 1332.714844 1375.710938 1333.574219 C 1377.21875 1336.273438 1387.800781 1347.035156 1388.945312 1347.035156 C 1389.546875 1347.035156 1390.351562 1347.878906 1390.738281 1348.910156 C 1391.503906 1350.957031 1399.773438 1359.1875 1403.648438 1361.769531 C 1404.984375 1362.660156 1406.066406 1363.855469 1406.066406 1364.4375 C 1406.066406 1365.015625 1408.582031 1367.738281 1411.65625 1370.484375 C 1427.476562 1384.632812 1426.679688 1382.25 1418.679688 1391.304688 C 1414.210938 1396.359375 1415.15625 1397.578125 1419.722656 1392.648438 C 1421.914062 1390.285156 1430.722656 1380.851562 1439.300781 1371.679688 C 1458.957031 1350.675781 1481.230469 1326.8125 1492.863281 1314.292969 C 1497.808594 1308.980469 1503.25 1303.152344 1504.957031 1301.34375 C 1506.671875 1299.535156 1507.699219 1297.648438 1507.242188 1297.144531 C 1506.792969 1296.648438 1506.972656 1296.558594 1507.644531 1296.9375 C 1508.988281 1297.710938 1518.765625 1287.582031 1518.765625 1285.417969 C 1518.765625 1284.683594 1520.089844 1282.914062 1521.707031 1281.476562 L 1524.65625 1278.875 L 1522.550781 1281.558594 C 1521.390625 1283.035156 1523.207031 1281.605469 1526.582031 1278.378906 C 1533.375 1271.878906 1533.53125 1271.675781 1530.839844 1272.640625 C 1529.410156 1273.15625 1529.570312 1272.648438 1531.535156 1270.496094 C 1532.945312 1268.945312 1534.472656 1267.902344 1534.917969 1268.171875 C 1536.777344 1269.324219 1535.097656 1261.847656 1533.183594 1260.480469 C 1527.632812 1256.527344 1524.914062 1253.9375 1523.492188 1251.242188 C 1522.636719 1249.617188 1521.410156 1248.285156 1520.765625 1248.285156 C 1519.574219 1248.285156 1516.941406 1246.109375 1510.6875 1239.96875 C 1507.835938 1237.164062 1506.265625 1236.480469 1502.691406 1236.480469 C 1500.160156 1236.480469 1498.515625 1236.042969 1498.878906 1235.460938 C 1499.25 1234.855469 1513.289062 1234.414062 1533.492188 1234.359375 C 1552.183594 1234.324219 1567.714844 1234.046875 1568.003906 1233.757812 C 1568.507812 1233.253906 1510.519531 1233.441406 1463.722656 1234.085938 M 1560.027344 1242.113281 L 1556.871094 1245.605469 L 1560.359375 1242.449219 C 1563.613281 1239.511719 1564.339844 1238.625 1563.507812 1238.625 C 1563.324219 1238.625 1561.757812 1240.195312 1560.027344 1242.113281 M 1542.320312 1260.902344 L 1538.625 1264.925781 L 1542.652344 1261.222656 C 1544.859375 1259.1875 1546.675781 1257.378906 1546.675781 1257.199219 C 1546.675781 1256.378906 1545.765625 1257.152344 1542.320312 1260.902344 M 1526.484375 1277.535156 C 1524.457031 1279.570312 1524.136719 1279.632812 1524.136719 1278.042969 C 1524.136719 1277.027344 1524.855469 1276.195312 1525.746094 1276.195312 C 1526.628906 1276.195312 1527.355469 1275.628906 1527.355469 1274.941406 C 1527.355469 1274.25 1527.691406 1274.023438 1528.097656 1274.4375 C 1528.507812 1274.84375 1527.785156 1276.242188 1526.484375 1277.535156 M 899.074219 1323.980469 C 938.25 1362.496094 980.457031 1403.558594 986.375 1408.90625 C 990.207031 1412.363281 997.640625 1419.535156 1002.902344 1424.851562 C 1008.15625 1430.164062 1012.992188 1434.53125 1013.648438 1434.5625 C 1014.300781 1434.585938 1014.738281 1435.128906 1014.617188 1435.757812 C 1014.390625 1436.917969 1019.234375 1442.027344 1020.558594 1442.027344 C 1020.953125 1442.027344 1021.179688 1442.320312 1021.054688 1442.6875 C 1020.933594 1443.050781 1022.125 1444.5 1023.707031 1445.910156 C 1025.925781 1447.878906 1026.226562 1447.976562 1025.035156 1446.316406 C 1023.84375 1444.660156 1024.148438 1444.757812 1026.363281 1446.726562 C 1027.941406 1448.136719 1029.132812 1449.804688 1029.007812 1450.4375 C 1028.886719 1451.066406 1029.394531 1451.667969 1030.128906 1451.769531 C 1030.871094 1451.871094 1031.957031 1452.015625 1032.542969 1452.085938 C 1033.136719 1452.160156 1033.621094 1452.960938 1033.621094 1453.863281 C 1033.621094 1454.769531 1034.296875 1455.769531 1035.128906 1456.085938 C 1037.375 1456.945312 1047.074219 1466.15625 1046.808594 1467.179688 C 1046.6875 1467.664062 1047.644531 1468.964844 1048.941406 1470.070312 C 1050.925781 1471.765625 1051.066406 1471.785156 1049.835938 1470.199219 C 1048.089844 1467.945312 1049.972656 1467.644531 1051.824219 1469.886719 C 1052.539062 1470.742188 1052.765625 1472.023438 1052.328125 1472.730469 C 1051.863281 1473.484375 1051.988281 1473.734375 1052.632812 1473.34375 C 1053.765625 1472.640625 1057.632812 1476.152344 1056.726562 1477.058594 C 1056.445312 1477.335938 1058.972656 1480.195312 1062.355469 1483.410156 C 1067.816406 1488.597656 1067.964844 1488.683594 1063.714844 1484.148438 C 1058.742188 1478.855469 1059.039062 1477.039062 1064.105469 1481.734375 C 1065.703125 1483.214844 1067.679688 1484.421875 1068.503906 1484.421875 C 1071.4375 1484.421875 1082.332031 1487.640625 1082.988281 1488.703125 C 1083.351562 1489.296875 1088.210938 1490.492188 1093.789062 1491.363281 C 1099.359375 1492.238281 1107.304688 1493.746094 1111.433594 1494.722656 C 1115.570312 1495.695312 1120.757812 1496.726562 1122.976562 1497.011719 C 1125.191406 1497.292969 1127 1497.957031 1127 1498.484375 C 1127 1499.011719 1128.238281 1499.445312 1129.757812 1499.445312 C 1131.269531 1499.445312 1137.425781 1500.695312 1143.441406 1502.214844 C 1149.449219 1503.734375 1157.023438 1505.640625 1160.277344 1506.453125 C 1163.519531 1507.269531 1168.835938 1508.195312 1172.078125 1508.523438 C 1175.324219 1508.847656 1181.042969 1510.078125 1184.785156 1511.253906 C 1188.527344 1512.433594 1192.757812 1513.398438 1194.183594 1513.398438 C 1195.605469 1513.398438 1196.765625 1513.882812 1196.765625 1514.476562 C 1196.765625 1515.0625 1198.058594 1515.542969 1199.644531 1515.542969 C 1203.796875 1515.542969 1218.234375 1519.046875 1218.234375 1520.058594 C 1218.234375 1520.527344 1219.625 1520.914062 1221.328125 1520.914062 L 1224.425781 1520.914062 L 1220.257812 1516.484375 C 1213.835938 1509.671875 1215.316406 1508.988281 1222.261719 1515.570312 C 1225.65625 1518.789062 1220.488281 1513.367188 1210.789062 1503.519531 C 1201.09375 1493.667969 1192.679688 1485.902344 1192.109375 1486.253906 C 1191.535156 1486.609375 1191.363281 1486.421875 1191.722656 1485.835938 C 1192.347656 1484.832031 1182.195312 1473.929688 1181.160156 1474.488281 C 1180.890625 1474.636719 1180.65625 1474.398438 1180.652344 1473.953125 C 1180.621094 1472.46875 1156.675781 1449.109375 1155.761719 1449.675781 C 1155.257812 1449.980469 1154.988281 1449.816406 1155.148438 1449.308594 C 1155.367188 1448.625 1067.855469 1360.84375 1063.882812 1357.765625 C 1062.285156 1356.527344 1073.078125 1368.4375 1078.609375 1374.011719 C 1092.351562 1387.871094 1094.214844 1390.117188 1091.453125 1389.53125 C 1090.046875 1389.238281 1085.273438 1388.425781 1080.84375 1387.734375 C 1076.421875 1387.046875 1072.519531 1386.042969 1072.175781 1385.5 C 1071.570312 1384.5625 1064.453125 1382.925781 1055.625 1381.707031 C 1053.261719 1381.386719 1051.085938 1380.792969 1050.796875 1380.394531 C 1050.5 1379.996094 1046.875 1379.03125 1042.746094 1378.242188 C 1038.609375 1377.464844 1029.917969 1375.628906 1023.425781 1374.167969 C 1016.925781 1372.710938 1007.996094 1370.800781 1003.570312 1369.917969 C 999.140625 1369.039062 995.003906 1367.894531 994.375 1367.371094 C 993.742188 1366.84375 990.484375 1366.097656 987.128906 1365.699219 C 983.773438 1365.304688 981.023438 1364.628906 981.023438 1364.199219 C 981.023438 1363.765625 976.316406 1362.792969 970.558594 1362.039062 C 964.808594 1361.289062 959.816406 1360.242188 959.476562 1359.730469 C 959.140625 1359.207031 954.066406 1358.015625 948.207031 1357.089844 C 942.351562 1356.15625 937.316406 1355.027344 937.019531 1354.582031 C 936.722656 1354.140625 934.597656 1353.101562 932.300781 1352.285156 C 930 1351.460938 927.59375 1349.945312 926.949219 1348.910156 C 926.296875 1347.878906 925.414062 1347.035156 924.976562 1347.035156 C 924.539062 1347.035156 921.640625 1344.5 918.523438 1341.402344 C 910.976562 1333.878906 895.378906 1319.242188 891.394531 1315.929688 C 889.628906 1314.46875 893.085938 1318.085938 899.074219 1323.980469 M 1340.59375 1346.496094 C 1339.203125 1347.976562 1338.464844 1349.179688 1338.941406 1349.179688 C 1339.746094 1349.179688 1343.816406 1345.011719 1343.816406 1344.183594 C 1343.816406 1343.351562 1342.992188 1343.945312 1340.59375 1346.496094 M 1334.625 1353.738281 L 1331.46875 1357.230469 L 1334.960938 1354.074219 C 1338.210938 1351.136719 1338.941406 1350.253906 1338.109375 1350.253906 C 1337.921875 1350.253906 1336.359375 1351.820312 1334.625 1353.738281 M 1411.28125 1399.59375 C 1409.890625 1400.75 1409.277344 1401.71875 1409.929688 1401.738281 C 1410.574219 1401.757812 1411.976562 1400.808594 1413.046875 1399.625 C 1415.53125 1396.882812 1414.558594 1396.863281 1411.28125 1399.59375 M 1404.648438 1406.941406 C 1400.667969 1411.09375 1401.015625 1412.023438 1405.039062 1408.003906 C 1406.835938 1406.199219 1408.132812 1404.550781 1407.914062 1404.339844 C 1407.699219 1404.121094 1406.226562 1405.292969 1404.648438 1406.941406 M 1206.449219 1500.183594 C 1212.046875 1505.902344 1215.660156 1509.910156 1214.472656 1509.085938 C 1213.296875 1508.261719 1211.023438 1506.230469 1209.433594 1504.582031 C 1201.007812 1495.851562 1195.429688 1489.785156 1195.824219 1489.785156 C 1196.070312 1489.785156 1200.855469 1494.464844 1206.449219 1500.183594 M 1234.871094 1528.425781 C 1238.375 1531.964844 1241.484375 1534.863281 1241.78125 1534.863281 C 1242.078125 1534.863281 1239.449219 1531.964844 1235.945312 1528.425781 C 1232.4375 1524.882812 1229.332031 1521.984375 1229.035156 1521.984375 C 1228.738281 1521.984375 1231.367188 1524.882812 1234.871094 1528.425781 M 1137.195312 1556.335938 C 1139.5 1558.691406 1141.632812 1560.625 1141.929688 1560.625 C 1142.21875 1560.625 1140.574219 1558.691406 1138.269531 1556.335938 C 1135.964844 1553.972656 1133.839844 1552.039062 1133.542969 1552.039062 C 1133.246094 1552.039062 1134.890625 1553.972656 1137.195312 1556.335938 M 1265.414062 1558.75 C 1269.863281 1563.492188 1270.824219 1564.339844 1270.824219 1563.535156 C 1270.824219 1563.363281 1268.53125 1561.070312 1265.730469 1558.433594 L 1260.628906 1553.648438 L 1265.414062 1558.75 "/>
<path style=" stroke:none;fill-rule:evenodd;fill:rgb(39.215686%,39.215686%,39.215686%);fill-opacity:1;" d="M 1174.695312 224.59375 L 1171.546875 228.085938 L 1175.03125 224.929688 C 1178.28125 221.992188 1179.015625 221.105469 1178.183594 221.105469 C 1178 221.105469 1176.425781 222.675781 1174.695312 224.59375 M 1156.464844 243.914062 L 1152.226562 248.472656 L 1156.785156 244.238281 C 1161.027344 240.289062 1161.839844 239.355469 1161.027344 239.355469 C 1160.855469 239.355469 1158.800781 241.402344 1156.464844 243.914062 M 1086.6875 317.976562 L 1083.53125 321.464844 L 1087.019531 318.308594 C 1088.941406 316.578125 1090.503906 315.007812 1090.503906 314.820312 C 1090.503906 313.996094 1089.621094 314.722656 1086.6875 317.976562 M 1068.453125 337.296875 L 1064.210938 341.855469 L 1068.769531 337.617188 C 1071.28125 335.277344 1073.335938 333.226562 1073.335938 333.050781 C 1073.335938 332.238281 1072.402344 333.050781 1068.453125 337.296875 M 1050.191406 356.613281 L 1047.035156 360.105469 L 1050.523438 356.949219 C 1052.445312 355.21875 1054.015625 353.644531 1054.015625 353.460938 C 1054.015625 352.636719 1053.125 353.363281 1050.191406 356.613281 M 1017.988281 390.960938 L 1014.835938 394.449219 L 1018.324219 391.292969 C 1020.242188 389.5625 1021.816406 387.996094 1021.816406 387.808594 C 1021.816406 386.980469 1020.925781 387.707031 1017.988281 390.960938 M 1000.832031 409.210938 L 996.589844 413.769531 L 1001.148438 409.527344 C 1003.660156 407.195312 1005.714844 405.140625 1005.714844 404.964844 C 1005.714844 404.15625 1004.78125 404.964844 1000.832031 409.210938 M 992.210938 421.550781 C 990.980469 423.074219 989.195312 424.324219 988.238281 424.324219 C 987.285156 424.324219 983.941406 427.023438 980.8125 430.3125 L 975.125 436.308594 L 987.914062 424.503906 L 982.613281 430.40625 C 979.699219 433.648438 976.820312 436.496094 976.21875 436.714844 C 974.191406 437.476562 971.417969 440.347656 971.917969 441.160156 C 972.1875 441.605469 971.578125 442.628906 970.546875 443.433594 C 968.832031 444.777344 968.808594 444.726562 970.199219 442.75 C 971.035156 441.570312 969 443.257812 965.683594 446.503906 C 962.363281 449.75 959.625 452.6875 959.605469 453.027344 C 959.578125 453.371094 956.28125 456.996094 952.28125 461.078125 C 948.277344 465.167969 938.011719 475.941406 929.472656 485.027344 C 920.933594 494.117188 912.011719 503.53125 909.648438 505.964844 C 907.285156 508.394531 898.566406 517.621094 890.265625 526.476562 C 881.964844 535.324219 867.230469 551.027344 857.523438 561.355469 C 847.8125 571.683594 836.972656 583.25 833.4375 587.058594 C 829.898438 590.863281 825.285156 595.695312 823.1875 597.792969 C 817.300781 603.679688 815.742188 606.363281 820.804688 601.902344 C 828.144531 595.429688 833.554688 589.769531 834.328125 587.746094 C 834.726562 586.710938 835.488281 586.019531 836.019531 586.21875 C 837.59375 586.800781 847.933594 596.78125 847.933594 597.714844 C 847.933594 598.191406 849.140625 599.125 850.613281 599.796875 C 856.121094 602.308594 853.390625 603.214844 840.355469 603.214844 C 832.003906 603.214844 827.648438 603.59375 828.074219 604.285156 C 828.507812 604.980469 848.574219 605.359375 884.765625 605.359375 L 940.789062 605.359375 L 981.339844 564.792969 C 1003.648438 542.484375 1021.519531 523.808594 1021.050781 523.300781 C 1020.585938 522.785156 1020.738281 522.671875 1021.390625 523.042969 C 1022.871094 523.886719 1027.496094 519.121094 1026.386719 517.898438 C 1025.9375 517.410156 1026.105469 517.304688 1026.753906 517.679688 C 1027.40625 518.054688 1029.058594 517.164062 1030.433594 515.703125 C 1031.796875 514.246094 1032.472656 513.050781 1031.925781 513.050781 C 1031.386719 513.050781 1032.480469 512.101562 1034.375 510.949219 C 1036.261719 509.796875 1038.578125 507.367188 1039.519531 505.554688 C 1040.460938 503.738281 1041.632812 502.5 1042.132812 502.808594 C 1042.628906 503.117188 1043.632812 502.648438 1044.363281 501.773438 C 1045.089844 500.890625 1045.300781 500.175781 1044.832031 500.175781 C 1044.363281 500.175781 1045.101562 498.976562 1046.46875 497.523438 C 1047.839844 496.066406 1049.441406 495.171875 1050.042969 495.546875 C 1050.632812 495.914062 1050.820312 495.726562 1050.453125 495.125 C 1049.628906 493.792969 1054.410156 489.117188 1055.492188 490.199219 C 1055.921875 490.632812 1055.960938 490.167969 1055.574219 489.167969 C 1054.839844 487.242188 1057.234375 484.074219 1059.4375 484.074219 C 1060.359375 484.074219 1060.3125 484.589844 1059.265625 485.949219 C 1058.078125 487.480469 1058.253906 487.449219 1060.203125 485.789062 C 1062.546875 483.785156 1063.476562 482.332031 1061.710938 483.425781 C 1060.816406 483.972656 1059.546875 482.84375 1048.65625 471.800781 C 1045.417969 468.515625 1042.390625 465.824219 1041.925781 465.824219 C 1041.457031 465.824219 1040.621094 464.621094 1040.058594 463.144531 C 1039.5 461.671875 1038.445312 460.460938 1037.710938 460.460938 C 1036.980469 460.460938 1035.160156 459.230469 1033.660156 457.722656 C 1026.128906 450.164062 1024.132812 448.191406 1019.792969 444.03125 C 1017.210938 441.558594 1013.589844 437.882812 1011.742188 435.859375 C 1004.058594 427.441406 1000.542969 423.964844 999.707031 423.964844 C 999.21875 423.964844 997.832031 422.800781 996.628906 421.371094 L 994.445312 418.78125 L 992.210938 421.550781 M 1144.15625 936.214844 C 1152.121094 944.328125 1158.761719 950.976562 1158.917969 950.976562 C 1159.6875 950.976562 1158.148438 949.378906 1144.441406 935.929688 L 1129.683594 921.453125 L 1144.15625 936.214844 M 1103.925781 961.703125 C 1108.621094 966.429688 1112.703125 970.296875 1113 970.296875 C 1113.289062 970.296875 1109.6875 966.429688 1104.996094 961.703125 C 1100.300781 956.984375 1096.21875 953.121094 1095.921875 953.121094 C 1095.628906 953.121094 1099.230469 956.984375 1103.925781 961.703125 M 1165.59375 957.679688 C 1168.230469 960.488281 1170.523438 962.78125 1170.695312 962.78125 C 1171.5 962.78125 1170.648438 961.8125 1165.910156 957.371094 L 1160.808594 952.585938 L 1165.59375 957.679688 M 1178.519531 970.828125 C 1181.726562 974.074219 1184.59375 976.734375 1184.890625 976.734375 C 1185.179688 976.734375 1182.800781 974.074219 1179.59375 970.828125 C 1176.386719 967.585938 1173.523438 964.925781 1173.226562 964.925781 C 1172.929688 964.925781 1175.3125 967.585938 1178.519531 970.828125 M 1193.210938 986.046875 C 1193.488281 986.742188 1186.632812 994.207031 1177.980469 1002.644531 L 1162.238281 1017.976562 L 1188.894531 1044.175781 C 1203.550781 1058.582031 1218.046875 1072.761719 1221.101562 1075.6875 L 1226.652344 1081 L 1236.667969 1071.273438 C 1242.171875 1065.921875 1248.234375 1060.09375 1250.132812 1058.316406 C 1252.039062 1056.539062 1253.242188 1055.085938 1252.816406 1055.085938 C 1252.394531 1055.085938 1253.332031 1053.976562 1254.910156 1052.617188 L 1257.777344 1050.152344 L 1225.234375 1017.46875 C 1207.339844 999.488281 1192.925781 985.351562 1193.210938 986.046875 M 1132.363281 990.148438 C 1134.367188 992.21875 1136.246094 993.90625 1136.542969 993.90625 C 1136.839844 993.90625 1135.441406 992.21875 1133.441406 990.148438 C 1131.4375 988.082031 1129.558594 986.394531 1129.261719 986.394531 C 1128.964844 986.394531 1130.363281 988.082031 1132.363281 990.148438 M 1011.511719 1030.554688 C 1009.484375 1032.847656 1009.484375 1032.855469 1011.886719 1031.589844 C 1013.210938 1030.894531 1014.300781 1029.859375 1014.300781 1029.285156 C 1014.300781 1027.765625 1013.785156 1027.996094 1011.511719 1030.554688 M 978.320312 1063.425781 C 946.746094 1094.585938 839.351562 1200.152344 820.828125 1218.230469 C 812.714844 1226.148438 806.074219 1232.894531 806.074219 1233.214844 C 806.074219 1233.535156 836.484375 1233.554688 873.664062 1233.261719 L 941.25 1232.726562 L 950.136719 1224.226562 C 955.027344 1219.550781 986.492188 1188.636719 1020.058594 1155.527344 C 1053.628906 1122.421875 1081.398438 1095.082031 1081.777344 1094.773438 C 1084.378906 1092.625 1090.582031 1085.113281 1088.753906 1086.332031 C 1087.492188 1087.167969 1084.1875 1090.382812 1081.410156 1093.472656 C 1078.628906 1096.566406 1075.710938 1099.09375 1074.917969 1099.09375 C 1074.132812 1099.09375 1072.316406 1100.589844 1070.886719 1102.417969 L 1068.285156 1105.742188 L 1061.601562 1104.027344 C 1057.925781 1103.082031 1053.261719 1102.316406 1051.246094 1102.316406 C 1049.222656 1102.316406 1047.574219 1101.898438 1047.574219 1101.386719 C 1047.574219 1100.878906 1043.828125 1099.875 1039.253906 1099.152344 C 1034.683594 1098.4375 1027.070312 1096.855469 1022.351562 1095.636719 C 1017.628906 1094.421875 1011.832031 1093.046875 1009.46875 1092.589844 C 1005.496094 1091.824219 996.671875 1089.785156 985.589844 1087.050781 C 983.078125 1086.441406 981.023438 1085.566406 981.023438 1085.113281 C 981.023438 1084.664062 977.199219 1084.121094 972.523438 1083.910156 C 967.847656 1083.699219 963.695312 1083.195312 963.296875 1082.789062 C 962.160156 1081.664062 968.988281 1073.773438 975.320312 1068.886719 C 978.460938 1066.464844 981.023438 1063.914062 981.023438 1063.21875 C 981.023438 1062.515625 983.5625 1059.503906 986.660156 1056.507812 C 994.492188 1048.960938 1003.050781 1040.054688 1002.449219 1040.078125 C 1002.179688 1040.09375 991.320312 1050.597656 978.320312 1063.425781 M 1095.417969 1079.789062 C 1093.101562 1082.144531 1091.722656 1084.066406 1092.351562 1084.066406 C 1093.421875 1084.066406 1100.164062 1077.089844 1100.164062 1075.980469 C 1100.164062 1075.074219 1099.675781 1075.472656 1095.417969 1079.789062 M 1498.878906 1235.460938 C 1498.515625 1236.042969 1500.160156 1236.480469 1502.691406 1236.480469 C 1506.265625 1236.480469 1507.835938 1237.164062 1510.6875 1239.96875 C 1516.929688 1246.101562 1519.574219 1248.285156 1520.761719 1248.285156 C 1521.390625 1248.285156 1522.46875 1249.371094 1523.148438 1250.699219 C 1524.523438 1253.378906 1531.523438 1260.09375 1532.9375 1260.09375 C 1536.332031 1260.09375 1536.183594 1265.640625 1532.695312 1269.246094 C 1530.703125 1271.292969 1529.5625 1272.976562 1530.15625 1272.976562 C 1530.753906 1272.976562 1533.34375 1270.675781 1535.914062 1267.875 C 1540.519531 1262.851562 1565.023438 1236.730469 1566.640625 1235.113281 C 1567.097656 1234.65625 1552.183594 1234.324219 1533.492188 1234.359375 C 1513.289062 1234.414062 1499.25 1234.855469 1498.878906 1235.460938 M 1527.355469 1274.941406 C 1527.355469 1275.628906 1526.628906 1276.195312 1525.746094 1276.195312 C 1524.855469 1276.195312 1524.136719 1276.769531 1524.136719 1277.476562 C 1524.136719 1278.179688 1522.839844 1280.109375 1521.257812 1281.757812 C 1519.679688 1283.410156 1518.589844 1284.949219 1518.84375 1285.1875 C 1519.59375 1285.882812 1528.746094 1275.082031 1528.019531 1274.355469 C 1527.652344 1273.988281 1527.355469 1274.25 1527.355469 1274.941406 M 997.125 1419.484375 C 999.128906 1421.546875 1001.007812 1423.238281 1001.304688 1423.238281 C 1001.601562 1423.238281 1000.203125 1421.546875 998.199219 1419.484375 C 996.195312 1417.417969 994.316406 1415.722656 994.019531 1415.722656 C 993.722656 1415.722656 995.121094 1417.417969 997.125 1419.484375 M 1028.183594 1449.246094 C 1030.804688 1452.039062 1033.183594 1454.085938 1033.464844 1453.8125 C 1033.75 1453.527344 1033.769531 1453.171875 1033.515625 1453.023438 C 1033.257812 1452.875 1030.882812 1450.824219 1028.234375 1448.464844 L 1023.425781 1444.171875 L 1028.183594 1449.246094 M 1046.5 1467.386719 C 1052.695312 1473.355469 1066.707031 1487.003906 1077.632812 1497.699219 C 1094.804688 1514.527344 1139.449219 1557.945312 1168.421875 1586.003906 C 1173.386719 1590.808594 1177.445312 1594.460938 1177.445312 1594.113281 C 1177.445312 1593.765625 1178.53125 1594.90625 1179.859375 1596.644531 C 1181.191406 1598.382812 1185.457031 1602.820312 1189.34375 1606.507812 L 1196.410156 1613.21875 L 1258.574219 1613.199219 L 1320.734375 1613.175781 L 1274.042969 1567.027344 C 1200.320312 1494.15625 1194.910156 1488.863281 1201.113281 1495.683594 C 1204.332031 1499.226562 1209.136719 1504.371094 1211.796875 1507.121094 C 1214.449219 1509.871094 1218.371094 1514.09375 1220.507812 1516.515625 L 1224.390625 1520.914062 L 1221.3125 1520.914062 C 1219.621094 1520.914062 1218.234375 1520.527344 1218.234375 1520.058594 C 1218.234375 1519.046875 1203.796875 1515.542969 1199.644531 1515.542969 C 1198.058594 1515.542969 1196.765625 1515.0625 1196.765625 1514.476562 C 1196.765625 1513.882812 1195.605469 1513.398438 1194.183594 1513.398438 C 1192.757812 1513.398438 1188.527344 1512.433594 1184.785156 1511.253906 C 1181.042969 1510.078125 1175.324219 1508.847656 1172.078125 1508.523438 C 1168.835938 1508.195312 1163.519531 1507.269531 1160.277344 1506.453125 C 1157.023438 1505.640625 1149.449219 1503.734375 1143.441406 1502.214844 C 1137.425781 1500.695312 1131.269531 1499.445312 1129.757812 1499.445312 C 1128.238281 1499.445312 1127 1499.011719 1127 1498.484375 C 1127 1497.957031 1125.191406 1497.292969 1122.976562 1497.011719 C 1120.757812 1496.726562 1115.570312 1495.695312 1111.433594 1494.722656 C 1107.304688 1493.746094 1099.359375 1492.238281 1093.789062 1491.363281 C 1088.210938 1490.492188 1083.351562 1489.296875 1082.988281 1488.703125 C 1082.339844 1487.652344 1071.441406 1484.421875 1068.542969 1484.421875 C 1066.746094 1484.421875 1062.988281 1481.425781 1055.066406 1473.683594 C 1047.035156 1465.839844 1036.582031 1456.507812 1035.828125 1456.515625 C 1035.5 1456.523438 1040.296875 1461.410156 1046.5 1467.386719 "/>
</g>
</svg>
